<svg xmlns="http://www.w3.org/2000/svg" xmlns:xlink="http://www.w3.org/1999/xlink" viewBox="0 0 548.5 488"><defs><style>.cls-1{mask:url(#mask);filter:url(#luminosity-noclip-16);}.cls-10,.cls-12,.cls-14,.cls-16,.cls-18,.cls-2,.cls-20,.cls-22,.cls-24,.cls-26,.cls-28,.cls-30,.cls-36,.cls-39,.cls-4,.cls-45,.cls-50,.cls-52,.cls-55,.cls-59,.cls-6,.cls-64,.cls-68,.cls-70,.cls-72,.cls-74,.cls-75,.cls-76,.cls-8,.cls-96,.cls-98{mix-blend-mode:multiply;}.cls-2{fill:url(#linear-gradient);}.cls-3{mask:url(#mask-2);filter:url(#luminosity-noclip-21);}.cls-4{fill:url(#linear-gradient-2);}.cls-5{mask:url(#mask-3);filter:url(#luminosity-noclip-22);}.cls-6{fill:url(#linear-gradient-3);}.cls-7{mask:url(#mask-4);filter:url(#luminosity-noclip-23);}.cls-8{fill:url(#linear-gradient-4);}.cls-9{mask:url(#mask-5);filter:url(#luminosity-noclip-24);}.cls-10{fill:url(#linear-gradient-5);}.cls-11{mask:url(#mask-6);filter:url(#luminosity-noclip-25);}.cls-12{fill:url(#linear-gradient-6);}.cls-13{mask:url(#mask-7);filter:url(#luminosity-noclip-17);}.cls-14{fill:url(#linear-gradient-7);}.cls-15{mask:url(#mask-8);filter:url(#luminosity-noclip-26);}.cls-16{fill:url(#linear-gradient-8);}.cls-17{mask:url(#mask-9);filter:url(#luminosity-noclip-27);}.cls-18{fill:url(#linear-gradient-9);}.cls-19{mask:url(#mask-10);filter:url(#luminosity-noclip-28);}.cls-20{fill:url(#linear-gradient-10);}.cls-21{mask:url(#mask-11);filter:url(#luminosity-noclip-29);}.cls-22{fill:url(#linear-gradient-11);}.cls-23{mask:url(#mask-12);filter:url(#luminosity-noclip-30);}.cls-24{fill:url(#linear-gradient-12);}.cls-25{mask:url(#mask-13);filter:url(#luminosity-noclip-18);}.cls-26{fill:url(#linear-gradient-13);}.cls-27{mask:url(#mask-14);filter:url(#luminosity-noclip-19);}.cls-28{fill:url(#linear-gradient-14);}.cls-29{mask:url(#mask-15);filter:url(#luminosity-noclip-20);}.cls-30{fill:url(#linear-gradient-15);}.cls-31{isolation:isolate;}.cls-32{fill:#ffd44d;}.cls-33{fill:#afd15a;}.cls-34{fill:#369186;}.cls-35{mask:url(#mask-16);}.cls-36,.cls-39,.cls-70,.cls-72,.cls-74,.cls-94{opacity:0.5;}.cls-36{fill:url(#linear-gradient-16);}.cls-37{fill:#fdefc5;mix-blend-mode:hard-light;}.cls-37,.cls-45,.cls-78,.cls-96{opacity:0.4;}.cls-38{mask:url(#mask-17);}.cls-39{fill:url(#linear-gradient-17);}.cls-40{fill:#ffde52;}.cls-41{fill:#ff9254;}.cls-42{fill:#8ca53d;}.cls-43{fill:#292413;}.cls-44,.cls-94{fill:#efe19d;}.cls-45{fill:#4e2603;}.cls-46{fill:#e5956c;}.cls-47{fill:#fdbb91;}.cls-48{fill:#80cbe6;}.cls-49{mask:url(#mask-18);}.cls-50,.cls-55,.cls-75{opacity:0.3;}.cls-50{fill:url(#linear-gradient-18);}.cls-51{mask:url(#mask-19);}.cls-52,.cls-59,.cls-64,.cls-68,.cls-98{opacity:0.7;}.cls-52{fill:url(#linear-gradient-19);}.cls-53{fill:#518092;}.cls-54{fill:#d86650;}.cls-55{fill:#683367;}.cls-56{fill:#9c4e1d;}.cls-57{fill:#6c3907;}.cls-58{mask:url(#mask-20);}.cls-59{fill:url(#linear-gradient-20);}.cls-60{fill:#b86e3b;}.cls-61{fill:url(#linear-gradient-21);}.cls-62{fill:url(#linear-gradient-22);}.cls-63{mask:url(#mask-21);}.cls-64{fill:url(#linear-gradient-23);}.cls-65{fill:#a2e2fd;}.cls-66{fill:#5b859e;}.cls-67{mask:url(#mask-22);}.cls-68{fill:url(#linear-gradient-24);}.cls-69{mask:url(#mask-23);}.cls-70{fill:url(#linear-gradient-25);}.cls-71{mask:url(#mask-24);}.cls-72{fill:url(#linear-gradient-26);}.cls-73{mask:url(#mask-25);}.cls-74{fill:url(#linear-gradient-27);}.cls-75{fill:#2c1101;}.cls-76{fill:#005786;opacity:0.2;}.cls-77{fill:url(#linear-gradient-28);}.cls-78,.cls-94{mix-blend-mode:overlay;}.cls-79{mask:url(#mask-26);}.cls-80{fill:url(#linear-gradient-29);}.cls-81{mask:url(#mask-27);}.cls-82{fill:url(#linear-gradient-30);}.cls-83{mask:url(#mask-28);}.cls-84{fill:url(#linear-gradient-31);}.cls-85{mask:url(#mask-29);}.cls-86{fill:url(#linear-gradient-32);}.cls-87{fill:url(#linear-gradient-33);}.cls-88{fill:url(#linear-gradient-34);}.cls-89{fill:#432718;}.cls-90{fill:#f97f5d;}.cls-91{fill:#693c23;}.cls-92{fill:#26160e;}.cls-93{fill:#f2e2dc;}.cls-95{fill:url(#linear-gradient-35);}.cls-96{fill:#5b0f56;}.cls-97{mask:url(#mask-30);}.cls-98{fill:url(#linear-gradient-36);}.cls-99{fill:#5d3f39;}.cls-100{filter:url(#luminosity-noclip-15);}.cls-101{filter:url(#luminosity-noclip-14);}.cls-102{filter:url(#luminosity-noclip-13);}.cls-103{filter:url(#luminosity-noclip-12);}.cls-104{filter:url(#luminosity-noclip-11);}.cls-105{filter:url(#luminosity-noclip-10);}.cls-106{filter:url(#luminosity-noclip-9);}.cls-107{filter:url(#luminosity-noclip-8);}.cls-108{filter:url(#luminosity-noclip-7);}.cls-109{filter:url(#luminosity-noclip-6);}.cls-110{filter:url(#luminosity-noclip-5);}.cls-111{filter:url(#luminosity-noclip-4);}.cls-112{filter:url(#luminosity-noclip-3);}.cls-113{filter:url(#luminosity-noclip-2);}.cls-114{filter:url(#luminosity-noclip);}</style><filter id="luminosity-noclip" x="118.5" y="-8438" width="367.2" height="32766" filterUnits="userSpaceOnUse" color-interpolation-filters="sRGB"><feFlood flood-color="#fff" result="bg"/><feBlend in="SourceGraphic" in2="bg"/></filter><mask id="mask" x="118.5" y="-8438" width="367.2" height="32766" maskUnits="userSpaceOnUse"><g class="cls-114"/></mask><linearGradient id="linear-gradient" x1="302.1" y1="371.05" x2="302.1" y2="480.1" gradientUnits="userSpaceOnUse"><stop offset="0" stop-color="#b3b3b3"/><stop offset="0.16" stop-color="#afafaf"/><stop offset="0.31" stop-color="#a4a4a4"/><stop offset="0.46" stop-color="#919191"/><stop offset="0.6" stop-color="#767676"/><stop offset="0.74" stop-color="#545454"/><stop offset="0.88" stop-color="#2b2b2b"/><stop offset="1"/></linearGradient><filter id="luminosity-noclip-2" x="199.65" y="-8438" width="51.35" height="32766" filterUnits="userSpaceOnUse" color-interpolation-filters="sRGB"><feFlood flood-color="#fff" result="bg"/><feBlend in="SourceGraphic" in2="bg"/></filter><mask id="mask-2" x="199.65" y="-8438" width="51.35" height="32766" maskUnits="userSpaceOnUse"><g class="cls-113"/></mask><linearGradient id="linear-gradient-2" x1="173.78" y1="411.16" x2="254.9" y2="282.43" gradientUnits="userSpaceOnUse"><stop offset="0.01"/><stop offset="1" stop-color="#b3b3b3"/></linearGradient><filter id="luminosity-noclip-3" x="267.04" y="-8438" width="168.61" height="32766" filterUnits="userSpaceOnUse" color-interpolation-filters="sRGB"><feFlood flood-color="#fff" result="bg"/><feBlend in="SourceGraphic" in2="bg"/></filter><mask id="mask-3" x="267.04" y="-8438" width="168.61" height="32766" maskUnits="userSpaceOnUse"><g class="cls-112"/></mask><linearGradient id="linear-gradient-3" x1="379.42" y1="393.94" x2="293.26" y2="280.85" xlink:href="#linear-gradient-2"/><filter id="luminosity-noclip-4" x="163.99" y="-8438" width="83.31" height="32766" filterUnits="userSpaceOnUse" color-interpolation-filters="sRGB"><feFlood flood-color="#fff" result="bg"/><feBlend in="SourceGraphic" in2="bg"/></filter><mask id="mask-4" x="163.99" y="-8438" width="83.31" height="32766" maskUnits="userSpaceOnUse"><g class="cls-111"/></mask><linearGradient id="linear-gradient-4" x1="229.92" y1="361.16" x2="193.75" y2="242.04" gradientUnits="userSpaceOnUse"><stop offset="0.01"/><stop offset="1" stop-color="#adadad"/></linearGradient><filter id="luminosity-noclip-5" x="168.82" y="-8438" width="136.71" height="32766" filterUnits="userSpaceOnUse" color-interpolation-filters="sRGB"><feFlood flood-color="#fff" result="bg"/><feBlend in="SourceGraphic" in2="bg"/></filter><mask id="mask-5" x="168.82" y="-8438" width="136.71" height="32766" maskUnits="userSpaceOnUse"><g class="cls-110"/></mask><linearGradient id="linear-gradient-5" x1="243.61" y1="286.21" x2="238.76" y2="235.96" xlink:href="#linear-gradient-4"/><filter id="luminosity-noclip-6" x="280.04" y="-8438" width="16.54" height="32766" filterUnits="userSpaceOnUse" color-interpolation-filters="sRGB"><feFlood flood-color="#fff" result="bg"/><feBlend in="SourceGraphic" in2="bg"/></filter><mask id="mask-6" x="280.04" y="-8438" width="16.54" height="32766" maskUnits="userSpaceOnUse"><g class="cls-109"/></mask><linearGradient id="linear-gradient-6" x1="290.34" y1="246.14" x2="288.57" y2="227.7" xlink:href="#linear-gradient-4"/><filter id="luminosity-noclip-7" x="13.5" y="-8438" width="90" height="32766" filterUnits="userSpaceOnUse" color-interpolation-filters="sRGB"><feFlood flood-color="#fff" result="bg"/><feBlend in="SourceGraphic" in2="bg"/></filter><mask id="mask-7" x="13.5" y="-8438" width="90" height="32766" maskUnits="userSpaceOnUse"><g class="cls-108"/></mask><linearGradient id="linear-gradient-7" x1="13.5" y1="389.5" x2="103.5" y2="389.5" xlink:href="#linear-gradient"/><filter id="luminosity-noclip-8" x="256.96" y="-8438" width="46.37" height="32766" filterUnits="userSpaceOnUse" color-interpolation-filters="sRGB"><feFlood flood-color="#fff" result="bg"/><feBlend in="SourceGraphic" in2="bg"/></filter><mask id="mask-8" x="256.96" y="-8438" width="46.37" height="32766" maskUnits="userSpaceOnUse"><g class="cls-107"/></mask><linearGradient id="linear-gradient-8" x1="251.79" y1="386.43" x2="306.02" y2="335.51" gradientUnits="userSpaceOnUse"><stop offset="0" stop-color="#b3b3b3"/><stop offset="1"/></linearGradient><filter id="luminosity-noclip-9" x="134.29" y="-8438" width="15.99" height="32766" filterUnits="userSpaceOnUse" color-interpolation-filters="sRGB"><feFlood flood-color="#fff" result="bg"/><feBlend in="SourceGraphic" in2="bg"/></filter><mask id="mask-9" x="134.29" y="-8438" width="15.99" height="32766" maskUnits="userSpaceOnUse"><g class="cls-106"/></mask><linearGradient id="linear-gradient-9" x1="705.61" y1="667.68" x2="759.84" y2="616.77" gradientTransform="matrix(0.03, 0.47, -0.86, -0.44, 677.4, 241.17)" xlink:href="#linear-gradient-8"/><filter id="luminosity-noclip-10" x="194" y="-8438" width="24.56" height="32766" filterUnits="userSpaceOnUse" color-interpolation-filters="sRGB"><feFlood flood-color="#fff" result="bg"/><feBlend in="SourceGraphic" in2="bg"/></filter><mask id="mask-10" x="194" y="-8438" width="24.56" height="32766" maskUnits="userSpaceOnUse"><g class="cls-105"/></mask><linearGradient id="linear-gradient-10" x1="417.23" y1="571.94" x2="362.57" y2="525.21" gradientTransform="matrix(0.82, 1.28, -0.92, 0.59, 389.81, -435.45)" xlink:href="#linear-gradient-8"/><filter id="luminosity-noclip-11" x="219.99" y="-8438" width="5.93" height="32766" filterUnits="userSpaceOnUse" color-interpolation-filters="sRGB"><feFlood flood-color="#fff" result="bg"/><feBlend in="SourceGraphic" in2="bg"/></filter><mask id="mask-11" x="219.99" y="-8438" width="5.93" height="32766" maskUnits="userSpaceOnUse"><g class="cls-104"/></mask><linearGradient id="linear-gradient-11" x1="198.16" y1="345.72" x2="239.61" y2="384.52" xlink:href="#linear-gradient-8"/><filter id="luminosity-noclip-12" x="364.94" y="-8438" width="22.23" height="32766" filterUnits="userSpaceOnUse" color-interpolation-filters="sRGB"><feFlood flood-color="#fff" result="bg"/><feBlend in="SourceGraphic" in2="bg"/></filter><mask id="mask-12" x="364.94" y="-8438" width="22.23" height="32766" maskUnits="userSpaceOnUse"><g class="cls-103"/></mask><linearGradient id="linear-gradient-12" x1="379.23" y1="235.74" x2="352.75" y2="227.35" xlink:href="#linear-gradient-2"/><filter id="luminosity-noclip-13" x="266.59" y="-8438" width="16.88" height="32766" filterUnits="userSpaceOnUse" color-interpolation-filters="sRGB"><feFlood flood-color="#fff" result="bg"/><feBlend in="SourceGraphic" in2="bg"/></filter><mask id="mask-13" x="266.59" y="-8438" width="16.88" height="32766" maskUnits="userSpaceOnUse"><g class="cls-102"/></mask><linearGradient id="linear-gradient-13" x1="279.76" y1="203.03" x2="277.9" y2="183.75" gradientTransform="matrix(0.96, -0.11, 0.11, 0.93, -10.79, 73.43)" xlink:href="#linear-gradient-4"/><filter id="luminosity-noclip-14" x="171.79" y="-8438" width="116.96" height="32766" filterUnits="userSpaceOnUse" color-interpolation-filters="sRGB"><feFlood flood-color="#fff" result="bg"/><feBlend in="SourceGraphic" in2="bg"/></filter><mask id="mask-14" x="171.79" y="-8438" width="116.96" height="32766" maskUnits="userSpaceOnUse"><g class="cls-101"/></mask><linearGradient id="linear-gradient-14" x1="226.48" y1="181.06" x2="233.09" y2="232.41" xlink:href="#linear-gradient-4"/><filter id="luminosity-noclip-15" x="273.87" y="-8438" width="177.21" height="32766" filterUnits="userSpaceOnUse" color-interpolation-filters="sRGB"><feFlood flood-color="#fff" result="bg"/><feBlend in="SourceGraphic" in2="bg"/></filter><mask id="mask-15" x="273.87" y="-8438" width="177.21" height="32766" maskUnits="userSpaceOnUse"><g class="cls-100"/></mask><linearGradient id="linear-gradient-15" x1="362.93" y1="239.65" x2="362.14" y2="260.41" xlink:href="#linear-gradient-2"/><filter id="luminosity-noclip-16" x="118.5" y="384.07" width="367.2" height="42.46" filterUnits="userSpaceOnUse" color-interpolation-filters="sRGB"><feFlood flood-color="#fff" result="bg"/><feBlend in="SourceGraphic" in2="bg"/></filter><mask id="mask-16" x="118.5" y="384.07" width="367.2" height="42.46" maskUnits="userSpaceOnUse"><g class="cls-1"><path class="cls-2" d="M485.5,406c10-39-367-16.88-367-3C117.5,438.14,471,429.46,485.5,406Z"/></g></mask><linearGradient id="linear-gradient-16" x1="302.1" y1="371.05" x2="302.1" y2="480.1" gradientUnits="userSpaceOnUse"><stop offset="0" stop-color="#db6300"/><stop offset="0.21" stop-color="#d86104"/><stop offset="0.4" stop-color="#ce5c0f"/><stop offset="0.59" stop-color="#bd5322"/><stop offset="0.78" stop-color="#a5463d"/><stop offset="0.96" stop-color="#87355f"/><stop offset="1" stop-color="#803167"/></linearGradient><filter id="luminosity-noclip-17" x="13.5" y="384.69" width="90" height="9.63" filterUnits="userSpaceOnUse" color-interpolation-filters="sRGB"><feFlood flood-color="#fff" result="bg"/><feBlend in="SourceGraphic" in2="bg"/></filter><mask id="mask-17" x="13.5" y="384.69" width="90" height="9.63" maskUnits="userSpaceOnUse"><g class="cls-13"><ellipse class="cls-14" cx="58.5" cy="389.5" rx="45" ry="4.81"/></g></mask><linearGradient id="linear-gradient-17" x1="13.5" y1="389.5" x2="103.5" y2="389.5" xlink:href="#linear-gradient-16"/><filter id="luminosity-noclip-18" x="266.59" y="200.78" width="16.88" height="13.72" filterUnits="userSpaceOnUse" color-interpolation-filters="sRGB"><feFlood flood-color="#fff" result="bg"/><feBlend in="SourceGraphic" in2="bg"/></filter><mask id="mask-18" x="266.59" y="200.78" width="16.88" height="13.72" maskUnits="userSpaceOnUse"><g class="cls-25"><path class="cls-26" d="M279,200.78l4.46,12.33-3.65,1.39c-3.66-11-4.59-10-13.23-8.31Z"/></g></mask><linearGradient id="linear-gradient-18" x1="279.76" y1="203.03" x2="277.9" y2="183.75" gradientTransform="matrix(0.96, -0.11, 0.11, 0.93, -10.79, 73.43)" gradientUnits="userSpaceOnUse"><stop offset="0.01" stop-color="#5d1a03"/><stop offset="1" stop-color="#6c0c03"/></linearGradient><filter id="luminosity-noclip-19" x="171.79" y="203.32" width="116.96" height="30.71" filterUnits="userSpaceOnUse" color-interpolation-filters="sRGB"><feFlood flood-color="#fff" result="bg"/><feBlend in="SourceGraphic" in2="bg"/></filter><mask id="mask-19" x="171.79" y="203.32" width="116.96" height="30.71" maskUnits="userSpaceOnUse"><g class="cls-27"><path class="cls-28" d="M287.62,203.32c-40.55,13.94-49.64,41.81-115.47,3,0-.2-.07-.4-.11-.59a23.5,23.5,0,0,0,.33,8.53c66.34,39.12,75,10.52,116.38-3.31A72,72,0,0,0,287.62,203.32Z"/></g></mask><linearGradient id="linear-gradient-19" x1="226.48" y1="181.06" x2="233.09" y2="232.41" gradientTransform="matrix(1, 0, 0, 1, 0, 0)" xlink:href="#linear-gradient-18"/><filter id="luminosity-noclip-20" x="273.87" y="248.5" width="177.21" height="13.23" filterUnits="userSpaceOnUse" color-interpolation-filters="sRGB"><feFlood flood-color="#fff" result="bg"/><feBlend in="SourceGraphic" in2="bg"/></filter><mask id="mask-20" x="273.87" y="248.5" width="177.21" height="13.23" maskUnits="userSpaceOnUse"><g class="cls-29"><polygon class="cls-30" points="451.08 254.67 273.87 248.5 275.25 258.63 448.88 261.73 451.08 254.67"/></g></mask><linearGradient id="linear-gradient-20" x1="362.93" y1="239.65" x2="362.14" y2="260.41" gradientUnits="userSpaceOnUse"><stop offset="0.01" stop-color="#803167"/><stop offset="1" stop-color="#470a4c"/></linearGradient><linearGradient id="linear-gradient-21" x1="190.21" y1="350.37" x2="-50.48" y2="362.27" gradientUnits="userSpaceOnUse"><stop offset="0" stop-color="#503324"/><stop offset="0.99" stop-color="#ad561c"/></linearGradient><linearGradient id="linear-gradient-22" x1="407.3" y1="346.51" x2="23.83" y2="365.48" xlink:href="#linear-gradient-21"/><filter id="luminosity-noclip-21" x="199.65" y="306.69" width="51.35" height="45.83" filterUnits="userSpaceOnUse" color-interpolation-filters="sRGB"><feFlood flood-color="#fff" result="bg"/><feBlend in="SourceGraphic" in2="bg"/></filter><mask id="mask-21" x="199.65" y="306.69" width="51.35" height="45.83" maskUnits="userSpaceOnUse"><g class="cls-3"><path class="cls-4" d="M251,310.18l-7.26-3.49-44.08,25.13c10.67,10.5,21.54,19.38,33.81,20.7,1.45-1.59,2.88-3.23,4.22-5C246.76,335.61,251.19,322.1,251,310.18Z"/></g></mask><linearGradient id="linear-gradient-23" x1="173.78" y1="411.16" x2="254.9" y2="282.43" xlink:href="#linear-gradient-20"/><filter id="luminosity-noclip-22" x="267.04" y="291.69" width="168.61" height="106.25" filterUnits="userSpaceOnUse" color-interpolation-filters="sRGB"><feFlood flood-color="#fff" result="bg"/><feBlend in="SourceGraphic" in2="bg"/></filter><mask id="mask-22" x="267.04" y="291.69" width="168.61" height="106.25" maskUnits="userSpaceOnUse"><g class="cls-5"><path class="cls-6" d="M361.12,320c12.26,11.52,19.46,33.85,20.89,71.53,5.34.77,12.05,3,16.86-.68-.86-17.48-3.09-33-6.83-46.23,9.18,12.45,18.13,29.8,27.3,53.36,6.28-.7,12.45-.32,16.31-6.61-26.9-58-45.42-85.18-73.68-91.95-18.91-11.53-55.26-11.2-94.27,8.63l-.66,8.82,6.39-1.77-6.17,25.57C300.7,327.15,339.11,311.54,361.12,320Z"/></g></mask><linearGradient id="linear-gradient-24" x1="379.42" y1="393.94" x2="293.26" y2="280.85" xlink:href="#linear-gradient-20"/><filter id="luminosity-noclip-23" x="163.99" y="202.42" width="83.31" height="132.77" filterUnits="userSpaceOnUse" color-interpolation-filters="sRGB"><feFlood flood-color="#fff" result="bg"/><feBlend in="SourceGraphic" in2="bg"/></filter><mask id="mask-23" x="163.99" y="202.42" width="83.31" height="132.77" maskUnits="userSpaceOnUse"><g class="cls-7"><path class="cls-8" d="M212.6,237.48c-12.4-12-23-23.23-32.31-35.06,1.8,4.27,1.74,5.65,1.45,10.82s-12.93-5.26-13-.22c-6.39,16.3-12.12,54.88,24,116.6.09.15.17.29.27.43,8.26,13.21,56.79-.21,54.22-27.11C229.57,274.51,220,255.08,212.6,237.48Z"/></g></mask><linearGradient id="linear-gradient-25" x1="229.92" y1="361.16" x2="193.75" y2="242.04" gradientTransform="matrix(1, 0, 0, 1, 0, 0)" xlink:href="#linear-gradient-18"/><filter id="luminosity-noclip-24" x="168.82" y="212.37" width="136.71" height="31.13" filterUnits="userSpaceOnUse" color-interpolation-filters="sRGB"><feFlood flood-color="#fff" result="bg"/><feBlend in="SourceGraphic" in2="bg"/></filter><mask id="mask-24" x="168.82" y="212.37" width="136.71" height="31.13" maskUnits="userSpaceOnUse"><g class="cls-9"><path class="cls-10" d="M168.92,212.37a25.22,25.22,0,0,0,0,4.83c72.31,46.46,86.35,19.05,136.57,10,0-1.9,0-3.54-.09-5.07-47.93,9.13-61.51,36.5-129.59-5.85C171.71,214.17,169.39,212.66,168.92,212.37Z"/></g></mask><linearGradient id="linear-gradient-26" x1="243.61" y1="286.21" x2="238.76" y2="235.96" gradientTransform="matrix(1, 0, 0, 1, 0, 0)" xlink:href="#linear-gradient-18"/><filter id="luminosity-noclip-25" x="280.04" y="216.1" width="16.54" height="13.89" filterUnits="userSpaceOnUse" color-interpolation-filters="sRGB"><feFlood flood-color="#fff" result="bg"/><feBlend in="SourceGraphic" in2="bg"/></filter><mask id="mask-25" x="280.04" y="216.1" width="16.54" height="13.89" maskUnits="userSpaceOnUse"><g class="cls-11"><path class="cls-12" d="M293.49,216.1l3.09,13.67-3.75.22c-2.43-12.12-3.69-10.44-12.79-9.7Z"/></g></mask><linearGradient id="linear-gradient-27" x1="290.34" y1="246.14" x2="288.57" y2="227.7" gradientTransform="matrix(1, 0, 0, 1, 0, 0)" xlink:href="#linear-gradient-18"/><linearGradient id="linear-gradient-28" x1="326.52" y1="531.29" x2="136.08" y2="254.45" gradientUnits="userSpaceOnUse"><stop offset="0" stop-color="#d55814"/><stop offset="1" stop-color="#c66280"/></linearGradient><filter id="luminosity-noclip-26" x="256.96" y="349.92" width="46.37" height="19.77" filterUnits="userSpaceOnUse" color-interpolation-filters="sRGB"><feFlood flood-color="#fff" result="bg"/><feBlend in="SourceGraphic" in2="bg"/></filter><mask id="mask-26" x="256.96" y="349.92" width="46.37" height="19.77" maskUnits="userSpaceOnUse"><g class="cls-15"><path class="cls-16" d="M303.24,366.83c-1.17,3.84-12.46,3.82-25.21-.07s-22.14-10.13-21-14,12.45-3.81,25.21.07S304.4,363,303.24,366.83Z"/></g></mask><linearGradient id="linear-gradient-29" x1="251.79" y1="386.43" x2="306.02" y2="335.51" gradientUnits="userSpaceOnUse"><stop offset="0" stop-color="#effc77"/><stop offset="1" stop-color="#c8fb8d"/></linearGradient><filter id="luminosity-noclip-27" x="134.29" y="282.28" width="15.99" height="17.53" filterUnits="userSpaceOnUse" color-interpolation-filters="sRGB"><feFlood flood-color="#fff" result="bg"/><feBlend in="SourceGraphic" in2="bg"/></filter><mask id="mask-27" x="134.29" y="282.28" width="15.99" height="17.53" maskUnits="userSpaceOnUse"><g class="cls-17"><path class="cls-18" d="M137,298.8c-3.33-2.26-3.67-7.56-.76-11.84s7.95-5.93,11.28-3.67,3.66,7.55.75,11.83S140.35,301.05,137,298.8Z"/></g></mask><linearGradient id="linear-gradient-30" x1="705.61" y1="667.68" x2="759.84" y2="616.77" gradientTransform="matrix(0.03, 0.47, -0.86, -0.44, 677.4, 241.17)" xlink:href="#linear-gradient-29"/><filter id="luminosity-noclip-28" x="194" y="378.23" width="24.56" height="18.07" filterUnits="userSpaceOnUse" color-interpolation-filters="sRGB"><feFlood flood-color="#fff" result="bg"/><feBlend in="SourceGraphic" in2="bg"/></filter><mask id="mask-28" x="194" y="378.23" width="24.56" height="18.07" maskUnits="userSpaceOnUse"><g class="cls-19"><path class="cls-20" d="M209.73,392.4c6.54-4.2,10.27-10,8.32-13.08s-6.18.76-12.73,5-12.91,7.22-11,10.25S203.19,396.6,209.73,392.4Z"/></g></mask><linearGradient id="linear-gradient-31" x1="417.23" y1="571.94" x2="362.57" y2="525.21" gradientTransform="matrix(0.82, 1.28, -0.92, 0.59, 389.81, -435.45)" xlink:href="#linear-gradient-29"/><filter id="luminosity-noclip-29" x="219.99" y="363.33" width="5.93" height="10.15" filterUnits="userSpaceOnUse" color-interpolation-filters="sRGB"><feFlood flood-color="#fff" result="bg"/><feBlend in="SourceGraphic" in2="bg"/></filter><mask id="mask-29" x="219.99" y="363.33" width="5.93" height="10.15" maskUnits="userSpaceOnUse"><g class="cls-21"><path class="cls-22" d="M225.92,368.41c0-2.8-1.67-5.08-3.72-5.08s-2.21,2.06-2.21,4.86.15,5.29,2.21,5.29S225.92,371.21,225.92,368.41Z"/></g></mask><linearGradient id="linear-gradient-32" x1="198.16" y1="345.72" x2="239.61" y2="384.52" xlink:href="#linear-gradient-29"/><linearGradient id="linear-gradient-33" x1="168.78" y1="406.93" x2="127.05" y2="371.26" xlink:href="#linear-gradient-28"/><linearGradient id="linear-gradient-34" x1="240.83" y1="437.7" x2="149.93" y2="359.99" xlink:href="#linear-gradient-28"/><linearGradient id="linear-gradient-35" x1="364.47" y1="263.81" x2="426.62" y2="129.58" gradientUnits="userSpaceOnUse"><stop offset="0" stop-color="#fdf0a5"/><stop offset="1" stop-color="#b3828b"/></linearGradient><filter id="luminosity-noclip-30" x="364.94" y="219.18" width="22.23" height="29.08" filterUnits="userSpaceOnUse" color-interpolation-filters="sRGB"><feFlood flood-color="#fff" result="bg"/><feBlend in="SourceGraphic" in2="bg"/></filter><mask id="mask-30" x="364.94" y="219.18" width="22.23" height="29.08" maskUnits="userSpaceOnUse"><g class="cls-23"><path class="cls-24" d="M378.61,248.26l.27-6.85c.12,0,.22,0,.33,0,4.39,0,8-4.28,8-9.57,0-5.14-3.34-9.29-7.53-9.56l.12-2.91-13.34-.23-1.48,28.53Zm.92-23.14c3,.19,5.32,3.13,5.32,6.76s-2.51,6.78-5.61,6.78a2,2,0,0,1-.24,0Z"/></g></mask><linearGradient id="linear-gradient-36" x1="379.23" y1="235.74" x2="352.75" y2="227.35" xlink:href="#linear-gradient-20"/></defs><g class="cls-31"><g id="Layer_2" data-name="Layer 2"><g id="_2" data-name="2"><polygon class="cls-32" points="7.5 385 548.5 384 298.5 488 7.5 385"/><polygon class="cls-33" points="502.58 384.08 61.6 387.08 6.5 30 548.5 0 502.58 384.08"/><rect class="cls-34" x="60.24" y="376.68" width="443.2" height="8.17"/><g class="cls-35"><path class="cls-36" d="M485.5,406c10-39-367-16.88-367-3C117.5,438.14,471,429.46,485.5,406Z"/></g><polygon class="cls-37" points="305.59 25.43 298.04 46.31 385.35 73.2 305.59 25.43"/><polygon class="cls-37" points="257.5 104 258.5 122 354.5 121 257.5 104"/><polygon class="cls-37" points="305.5 173 352.5 166 317.5 181 305.5 173"/><g class="cls-38"><ellipse class="cls-39" cx="58.5" cy="389.5" rx="45" ry="4.81"/></g><polygon class="cls-40" points="90.5 310 13.5 329 31.5 389 84.5 389 90.5 310"/><polygon class="cls-41" points="16.5 340 87.5 328 87.5 355 26.5 373 16.5 340"/><path class="cls-42" d="M60.5,309s6-86.67,56-68C116.5,241,61.83,178.33,60.5,309Z"/><path class="cls-42" d="M54.89,314.9S23.72,252.38,0,281C0,281,20,217.5,54.89,314.9Z"/><path class="cls-42" d="M53,304.5s-20.54-76.3-51-55C2,249.5,36,184.5,53,304.5Z"/><path class="cls-42" d="M54,292.45s1.45-100.47,51-81C105,211.44,48.66,141.31,54,292.45Z"/><path class="cls-42" d="M46.79,239.86s14.82-41.38,11.29-59.61S52,153.44,50.8,145.09,36.72,209,46.79,239.86Z"/><path class="cls-42" d="M41.56,236.17s-2.65-14.73-9.28-17.51-10.22-3.77-13-5.18S28.1,233,41.56,236.17Z"/><path class="cls-42" d="M36.44,217.4s-1.14-26.93-7.36-36.48-9.64-13.83-12.26-18.29S23.58,202.16,36.44,217.4Z"/></g><g id="_2-2" data-name="2"><polygon class="cls-43" points="416.87 72.17 408.73 70.23 399.06 224.65 407.66 224.26 416.87 72.17"/><polygon class="cls-37" points="416.04 76.58 408.54 73.94 403.87 147.88 411.77 156.41 416.04 76.58"/><polygon class="cls-44" points="416.56 215.5 411.19 215.88 406.31 246.64 418.2 247.49 416.56 215.5"/><polygon class="cls-44" points="433.89 247.18 390.03 244.09 387.66 249.9 434.77 252.47 433.89 247.18"/><polygon class="cls-45" points="434.77 252.47 433.89 247.18 418.13 246.11 416.56 215.5 411.19 215.88 408.76 230.54 417.43 246.11 387.27 250.04 434.77 252.47"/><polygon class="cls-44" points="377.69 238.03 301.31 242.88 299 245.97 380 248.39 377.69 238.03"/><polygon class="cls-45" points="376.87 239.13 302.79 243.98 300.54 247.07 379.11 249.49 376.87 239.13"/><path class="cls-46" d="M281.49,207.4c-.26-1.41,3.87-5.5,7.72-6.17s5.07.07,5.34,1.48-1.92,1.83-5.78,2.5S281.75,208.81,281.49,207.4Z"/><path class="cls-46" d="M309.45,207.46c-3.35-1-5.84-2.49-5.55-3.34s3.21-.71,6.56.29,5.83,2.5,5.56,3.34S312.8,208.47,309.45,207.46Z"/><path class="cls-46" d="M307.29,199.86c-3.48.52-6.41.23-6.55-.64s2.58-2,6.06-2.52,6.42-.23,6.56.64S310.78,199.34,307.29,199.86Z"/><path class="cls-46" d="M314.52,200.83c-3.33-1.11-5.79-2.68-5.5-3.51s3.23-.62,6.55.48,5.8,2.68,5.51,3.51S317.85,201.93,314.52,200.83Z"/><path class="cls-46" d="M309.74,203.25c-3.3-.95-5.77-2.32-5.52-3.06s3.13-.56,6.43.38,5.77,2.32,5.52,3.05S313,204.19,309.74,203.25Z"/><path class="cls-46" d="M312,208.61c1.14-1.77,2.69-2.82,3.48-2.34s.52,2.31-.61,4.08-2.68,2.82-3.47,2.34S310.9,210.38,312,208.61Z"/><path class="cls-46" d="M314.44,206.34c-1.4-1.85-1.95-3.82-1.24-4.4s2.41.44,3.81,2.29,1.94,3.82,1.24,4.4S315.83,208.19,314.44,206.34Z"/><path class="cls-46" d="M299.73,192c2.34-.57,4.39-.34,4.58.53s-1.54,2-3.88,2.6-4.37.34-4.57-.53S297.41,192.55,299.73,192Z"/><path class="cls-46" d="M292.88,196.35c1.58-1.87,4.83-3.16,5.55-2.5s1,2.36-1.62,5.4c-1.61,1.84-3.43,2.84-4.14,2.18A4.14,4.14,0,0,1,292.88,196.35Z"/><path class="cls-46" d="M289.77,202.21c.33-3.26,6.47-5.51,12-5s6.78,2.75,6.45,6-3.48,3.05-9,2.55S289.44,205.46,289.77,202.21Z"/><path class="cls-47" d="M296.66,219.13c.1-1.87,6.36-5.85,11.25-5.56s6.12,1.57,6,3.45-2.88,1.76-7.77,1.47S296.55,221,296.66,219.13Z"/><path class="cls-47" d="M331.16,223.61c-3.76-2.27-6.32-4.9-5.72-5.89s4.12,0,7.88,2.3,6.31,4.89,5.72,5.89S334.91,225.87,331.16,223.61Z"/><path class="cls-47" d="M330.88,219.14c-4.36-.5-7.78-1.84-7.65-3s3.77-1.68,8.13-1.17,7.78,1.85,7.65,3S335.23,219.64,330.88,219.14Z"/><path class="cls-47" d="M327,226c-4-1.73-6.93-4-6.48-5s4.09-.53,8.12,1.19,6.94,4,6.48,5S331,227.66,327,226Z"/><path class="cls-47" d="M335.12,233.43c-2.41-3.66-3.59-7.15-2.62-7.79s3.7,1.82,6.11,5.48,3.59,7.14,2.63,7.78S337.54,237.08,335.12,233.43Z"/><path class="cls-47" d="M333.77,229c1.49-3.27,3.55-5.52,4.59-5s.71,3.51-.78,6.78-3.55,5.52-4.59,5S332.29,232.29,333.77,229Z"/><path class="cls-47" d="M333.06,219.32c2-2.19,4.35-3.35,5.2-2.57s-.09,3.19-2.11,5.4-4.35,3.36-5.19,2.58S331.05,221.52,333.06,219.32Z"/><path class="cls-47" d="M322.89,227.18c2.7,1.28,4.5,3.16,4,4.21s-3.08.86-5.79-.41-4.49-3.16-4-4.2S320.19,225.91,322.89,227.18Z"/><path class="cls-47" d="M318.62,220.69c2,2.39,2.93,6.83,2,7.64s-3.12.9-6.34-3.09c-1.94-2.42-2.82-5-1.86-5.77S316.63,218.31,318.62,220.69Z"/><path class="cls-47" d="M308.29,215c1.39-4.05,9.53-5.1,16.08-2.84s7.38,5.49,6,9.54-5.14,2.85-11.68.59S306.89,219,308.29,215Z"/><path class="cls-48" d="M286.18,197.64c-37,13.87-50.15,37.3-103.54-5.44-10.08,6.38-12.06,13-10.27,22,66.34,39.12,75,10.52,116.38-3.31A66.41,66.41,0,0,0,286.18,197.64Z"/><g class="cls-49"><path class="cls-50" d="M279,200.78l4.46,12.33-3.65,1.39c-3.66-11-4.59-10-13.23-8.31Z"/></g><g class="cls-51"><path class="cls-52" d="M287.62,203.32c-40.55,13.94-49.64,41.81-115.47,3,0-.2-.07-.4-.11-.59a23.5,23.5,0,0,0,.33,8.53c66.34,39.12,75,10.52,116.38-3.31A72,72,0,0,0,287.62,203.32Z"/></g><path class="cls-53" d="M288.76,194.3l-11.9,5.75,3.25,10.38a4.48,4.48,0,0,0,5,3.08l8.33-1.44Z"/><path class="cls-48" d="M286.87,209.49a2.2,2.2,0,1,0-2.2,2.2A2.19,2.19,0,0,0,286.87,209.49Z"/><path class="cls-54" d="M494.74,406.89c-.33-4.7-29.76-9.54-48.66-8.21s-24.23,6-23.9,10.74,6.2,7.61,25.1,6.28S495.07,411.58,494.74,406.89Z"/><path class="cls-37" d="M490.5,404c-6-2-21.1-7.33-40-6s-20.61.47-20.28,5.18,6.2,7.61,25.11,6.28S495,405.49,490.5,404Z"/><path class="cls-55" d="M424.68,407c-.57-2.3,2.41-5,6.67-6.08s8.17,0,8.74,2.26-2.42,5-6.67,6.08S425.25,409.31,424.68,407Z"/><path class="cls-54" d="M443.33,391.67c-1-4-27.29-3.75-43.5.27s-20.12,8.92-19.12,12.95,6.54,5.67,22.75,1.65S444.33,395.7,443.33,391.67Z"/><path class="cls-55" d="M382.52,402.43c-.85-1.92,1.33-4.74,4.86-6.3s7.09-1.27,7.93.64-1.33,4.73-4.87,6.29S383.36,404.34,382.52,402.43Z"/><rect class="cls-56" x="425.99" y="388.91" width="7.27" height="17.08" transform="matrix(0.94, -0.33, 0.33, 0.94, -108.16, 166.5)"/><polygon class="cls-56" points="394.37 384.66 387.13 383.98 385.62 401.14 391.9 399.15 394.37 384.66"/><polygon class="cls-57" points="451.08 254.67 273.87 248.5 276.51 267.9 447.56 267.01 451.08 254.67"/><g class="cls-58"><polygon class="cls-59" points="451.08 254.67 273.87 248.5 275.25 258.63 448.88 261.73 451.08 254.67"/></g><rect class="cls-60" x="353.88" y="153.94" width="7.28" height="193.74" transform="translate(93.1 598.39) rotate(-87.79)"/><path class="cls-61" d="M239.14,322.21c110.55-62.69,155.07-26.1,159.73,68.6-4.81,3.67-11.52,1.45-16.86.68-4.11-108.61-56.19-89.74-138.91-51.7Z"/><path class="cls-62" d="M265.65,317.26l-21.92-10.57-44.08,25.13c16.11,15.85,32.67,28.13,53.8,16l7.81-4.47c77.82-30.89,115.59-54.59,158.08,54.57,6.28-.7,12.45-.32,16.31-6.61C387.14,286.79,366,282.22,265.65,317.26Z"/><g class="cls-63"><path class="cls-64" d="M251,310.18l-7.26-3.49-44.08,25.13c10.67,10.5,21.54,19.38,33.81,20.7,1.45-1.59,2.88-3.23,4.22-5C246.76,335.61,251.19,322.1,251,310.18Z"/></g><rect class="cls-47" x="159.03" y="172.46" width="35.26" height="17.19" transform="translate(-42.08 308.11) rotate(-75.85)"/><path class="cls-65" d="M155.16,198.33a10.32,10.32,0,0,1,9.3-8.15l9.21-.71c34.52,4.37,18.08,24,73.53,113.47,2.57,26.9-46,40.32-54.22,27.11C161.45,279.69,146.77,237.78,155.16,198.33Z"/><polygon class="cls-66" points="186.14 186.78 164.1 184.58 158.82 192.51 186.42 192.85 186.14 186.78"/><g class="cls-67"><path class="cls-68" d="M361.12,320c12.26,11.52,19.46,33.85,20.89,71.53,5.34.77,12.05,3,16.86-.68-.86-17.48-3.09-33-6.83-46.23,9.18,12.45,18.13,29.8,27.3,53.36,6.28-.7,12.45-.32,16.31-6.61-26.9-58-45.42-85.18-73.68-91.95-18.91-11.53-55.26-11.2-94.27,8.63l-.66,8.82,6.39-1.77-6.17,25.57C300.7,327.15,339.11,311.54,361.12,320Z"/></g><rect class="cls-57" x="319.94" y="261.95" width="8.59" height="138.86"/><g class="cls-69"><path class="cls-70" d="M212.6,237.48c-12.4-12-23-23.23-32.31-35.06,1.8,4.27,1.74,5.65,1.45,10.82s-12.93-5.26-13-.22c-6.39,16.3-12.12,54.88,24,116.6.09.15.17.29.27.43,8.26,13.21,56.79-.21,54.22-27.11C229.57,274.51,220,255.08,212.6,237.48Z"/></g><path class="cls-65" d="M304.3,213.74c-45.11,9.55-63.69,31.32-120.36-17.25-12.65,5.19-15.86,11.5-15,20.71,72.31,46.46,86.35,19.05,136.57,10A57.12,57.12,0,0,0,304.3,213.74Z"/><g class="cls-71"><path class="cls-72" d="M168.92,212.37a25.22,25.22,0,0,0,0,4.83c72.31,46.46,86.35,19.05,136.57,10,0-1.9,0-3.54-.09-5.07-47.93,9.13-61.51,36.5-129.59-5.85C171.71,214.17,169.39,212.66,168.92,212.37Z"/></g><g class="cls-73"><path class="cls-74" d="M293.49,216.1l3.09,13.67-3.75.22c-2.43-12.12-3.69-10.44-12.79-9.7Z"/></g><path class="cls-66" d="M305.17,210.81l-13.67,4.41,1.95,11.67a4.87,4.87,0,0,0,5,4.06l9.18-.3Z"/><path class="cls-65" d="M299.22,227.12a1.77,1.77,0,1,0-1.76,1.77A1.77,1.77,0,0,0,299.22,227.12Z"/><path class="cls-75" d="M186.42,192.76l-.28-6-2-.19L187.91,172c-3-2.66-7.37-2.78-11.9-4a31,31,0,0,0-4.63-1.1l-4.54,17.91-2.74-.28-5.18,7.78a10.28,10.28,0,0,0-3.76,6c-.48,2.24-.86,4.5-1.19,6.76,23.38,1,43.21,7.1,46.26,4.08C196.8,200.7,191.38,194.75,186.42,192.76Z"/><path class="cls-47" d="M150.66,120.63c2.49-26.61,21.72-46.57,43-44.58,31.32,3.4,27.35,51.67,26.47,66.66-2.49,26.61-14.25,31.69-35.48,29.7S148.17,147.24,150.66,120.63Z"/><path class="cls-76" d="M165.24,87.5C159.86,95,161,104.18,165,114.05c26.77,65.92,59.3,6.83,54.89,31.74-3.63,29.65-22.48,27.33-35.26,26.62-21.24-2-36.44-25.17-34-51.78C151.91,107.26,157.4,95.57,165.24,87.5Z"/><path class="cls-77" d="M325,402.35c-3.53-62.15-63.63-63.27-100.5-70.09-28.22-5.73-139.74-175.45-87.29,64.36,4.41,26.89,30,22,99.19,21.6C273.89,418.22,326.22,423.74,325,402.35Z"/><g class="cls-78"><path class="cls-44" d="M141.21,386c4.21,26.89,120.76,22.7,77-43.2-29.68-24.69-64.26-79.75-82.58-63C121.61,292.62,129.82,331.48,141.21,386Z"/></g><g class="cls-79"><path class="cls-80" d="M303.24,366.83c-1.17,3.84-12.46,3.82-25.21-.07s-22.14-10.13-21-14,12.45-3.81,25.21.07S304.4,363,303.24,366.83Z"/></g><g class="cls-81"><path class="cls-82" d="M137,298.8c-3.33-2.26-3.67-7.56-.76-11.84s7.95-5.93,11.28-3.67,3.66,7.55.75,11.83S140.35,301.05,137,298.8Z"/></g><g class="cls-83"><path class="cls-84" d="M209.73,392.4c6.54-4.2,10.27-10,8.32-13.08s-6.18.76-12.73,5-12.91,7.22-11,10.25S203.19,396.6,209.73,392.4Z"/></g><g class="cls-85"><path class="cls-86" d="M225.92,368.41c0-2.8-1.67-5.08-3.72-5.08s-2.21,2.06-2.21,4.86.15,5.29,2.21,5.29S225.92,371.21,225.92,368.41Z"/></g><path class="cls-87" d="M142.72,393.75s-.44-3.08,5.3-13.66c0,0-2.87,9.26,2.64,17.85Z"/><path class="cls-88" d="M184.16,375.46s8.38,23.36.22,27.77c0,0,6.62.66,16.75-2C185.26,401,194.52,395.74,184.16,375.46Z"/><path class="cls-89" d="M170,114.06c12.21-19,33.37-27.73,50-21.65-.08-.5-.15-1-.27-1.51-3.45-13.72-22.33-20.79-42.16-15.81A52,52,0,0,0,166.2,79.4c-7.4,3.53-14.52,10.2-19.6,19.16-4.9,8.65-7,17.84-6.4,25.81a52.24,52.24,0,0,0,1.5,12.44c4.23,17.18,16.09,29.46,28.11,30.29C158.63,154.29,158.21,132.39,170,114.06Z"/><path class="cls-89" d="M179,128.13c0-16.28,6.56-30,15.61-34.73-4-9.62-10.81-15.94-18.5-15.94-12.37,0-22.4,16.32-22.4,36.45s10,36.45,22.4,36.45a14.7,14.7,0,0,0,6.79-1.71A53.34,53.34,0,0,1,179,128.13Z"/><path class="cls-90" d="M218.55,111c2.2,11.68,2.42,19.83,1,32.72l5.28-1.75C236.79,137.94,227.44,120.45,218.55,111Z"/><path class="cls-47" d="M173,138.71c-1.29-5.51-5.56-9.23-9.52-8.3s-6.15,6.15-4.86,11.66,5.55,9.23,9.52,8.3S174.24,144.22,173,138.71Z"/><path class="cls-89" d="M182.34,150.87c.91-3.07-.11-6.07-2.28-6.71s-4.65,1.33-5.55,4.4.13,6.07,2.29,6.72S181.45,153.94,182.34,150.87Z"/><path class="cls-89" d="M169.67,146.78c-1.54,7.05,5.1,13,10.61,7.49l-5.1-7.05S173.2,153,169.67,146.78Z"/><path class="cls-89" d="M193.36,91.18c-.66-.33-12.56,15.21-6.61,35.88,0,0-10.25-18.69,1.16-33.4Z"/><path class="cls-89" d="M202.94,90c-.55-.49-16.48,7.32-16.43,25.37,0,0-4.79-18,10.42-25.38Z"/><path class="cls-89" d="M187.14,102.45c-.72-.17-11,14.25-2.46,30.13,0,0-12.76-13.62-2.84-27.29Z"/><path class="cls-89" d="M178.88,123.5c-.73.12-4.61,17.44,9.51,28.7,0,0-17.07-7.56-13.27-24Z"/><path class="cls-89" d="M211.27,85.4s5.29,14.38,13.56,5.95c0,0-3.47,1.65-7.11-4.63Z"/><path class="cls-89" d="M192.87,85.56S208.41,99.94,216,90c0,0,4.63-1.48-4.13-6S192.87,85.56,192.87,85.56Z"/><path class="cls-89" d="M204.44,90s-6.78,4.14-1.49,8.27c0,0-9.42.33-6.61-8.43S204.44,90,204.44,90Z"/><path class="cls-89" d="M140.3,119.45s-5.36-17.34,6.78-26.45c2.64-2,12.93-6.81,4.29-12.56,0,0,6.95-1.66,7.44,3.8C159.43,91,140.3,119.45,140.3,119.45Z"/><path class="cls-89" d="M158.48,86.23S146.75,96.93,147,88.46c-1,.34-2.91,4.92,1,5.72C148.06,94.18,153.33,94.12,158.48,86.23Z"/><path class="cls-89" d="M210,80s8.49,5.62,11-1.22c0,0-1.21,7.83-8,4.63Z"/><path class="cls-89" d="M214.64,122.9c.12-3.61-.57-6.56-1.52-6.6s-1.83,2.88-1.94,6.49.57,6.57,1.53,6.6S214.53,126.51,214.64,122.9Z"/><path class="cls-75" d="M172.7,138.74c-1-4.16-5.16-6.67-8.15-6s-4.62,4.64-3.65,8.79,4.19,7,7.18,6.26C170.71,145.35,173.68,142.89,172.7,138.74Z"/><path class="cls-91" d="M207.19,81.87c-.74-4.07-15.05-7.78-25-6s-22.46,9.26-21.71,13.33S175.06,92.84,185,91,207.94,85.94,207.19,81.87Z"/><path class="cls-91" d="M148.57,105c1.91-5.32,7.37-9.12,4.84-10s-8.15,3.62-10.07,8.94-1.49,12.42,1,13.33S146.65,110.34,148.57,105Z"/><path class="cls-91" d="M148.79,115.81s1.32-9.36,3.3-11.46.23,4.19,1.22,9.48S148.12,121.54,148.79,115.81Z"/><path class="cls-89" d="M219.54,105.77l-5.15.73a5.71,5.71,0,0,0-4.85,6.45l.2,1.39,10.8-1.53Z"/><path class="cls-92" d="M218.66,144.91c-3.9,2.33-7.63,2.4-10.23.76.71,1.45,3.37,16.92,4.77,16.1C217.34,156.48,218.49,150.53,218.66,144.91Z"/><rect class="cls-44" x="361.15" y="239.05" width="2.98" height="5.78"/><path class="cls-93" d="M216.61,151.06c.17-1,.28-2.15.36-3.39-2.26,1.76-4.63.77-6.61-.22l1.54,3.48Z"/><path class="cls-75" d="M217.23,250.71s1.76,19,16.31,31.51Z"/><path class="cls-75" d="M241.25,295.67s4,12.34,4,13.67S249.18,304,241.25,295.67Z"/><polygon class="cls-75" points="328.53 267.57 319.94 267.57 319.94 277.93 328.53 278.48 328.53 267.57"/><rect class="cls-94" x="356" y="151.9" width="3.19" height="193.74" transform="translate(95.22 596.5) rotate(-87.79)"/><polygon class="cls-95" points="435.87 85.4 431.55 85.09 432.21 75.69 412.4 69.86 401.49 224.92 421.86 223.89 422.12 220.1 426.45 220.4 435.87 85.4"/><path class="cls-37" d="M428.74,86.57a6.86,6.86,0,0,0-5.14-7.16l-3.85-1a4.73,4.73,0,0,0-5.88,4.24l-3.57,49.47L424.41,144Z"/><polygon class="cls-96" points="431.57 85.23 422.15 220.12 426.45 220.45 435.71 85.56 431.57 85.23"/><rect class="cls-96" x="414.7" y="186.32" width="10.91" height="2.98" transform="translate(201.78 592.92) rotate(-85.76)"/><rect class="cls-96" x="409.27" y="185.65" width="10.91" height="2.98" transform="translate(197.47 586.91) rotate(-85.76)"/><path class="cls-93" d="M379.64,222.32l.19-4.89-21.58-.87L357,247.4l21.59.86.27-6.85c.12,0,.22,0,.33,0,4.39,0,8-4.28,8-9.57C387.17,226.74,383.83,222.59,379.64,222.32Zm-.4,16.34a2,2,0,0,1-.24,0l.53-13.5c3,.19,5.32,3.13,5.32,6.76S382.34,238.66,379.24,238.66Z"/><g class="cls-97"><path class="cls-98" d="M378.61,248.26l.27-6.85c.12,0,.22,0,.33,0,4.39,0,8-4.28,8-9.57,0-5.14-3.34-9.29-7.53-9.56l.12-2.91-13.34-.23-1.48,28.53Zm.92-23.14c3,.19,5.32,3.13,5.32,6.76s-2.51,6.78-5.61,6.78a2,2,0,0,1-.24,0Z"/></g><path class="cls-37" d="M371.52,211.47s7.49-4,5.06-15.43-8.15-11.23-2.86-20.49c0,0-9.7,7.27-1.1,20.27C372.62,195.82,377.47,200,371.52,211.47Z"/><path class="cls-37" d="M366.1,212.56s-5.25-3-3.09-8.12,3.46-6.32.51-9.93c0,0,6.22,3.31,4.7,7.83S364.26,209.91,366.1,212.56Z"/><rect class="cls-99" x="210.51" y="128.17" width="15.87" height="3.09" transform="translate(57.02 325.89) rotate(-81.25)"/><polygon class="cls-99" points="226.04 115.32 224.06 115.02 221.23 133.59 223.1 133.88 226.04 115.32"/><polygon class="cls-99" points="223.12 133.83 220.81 128.21 215.79 137.36 218.23 138.59 223.12 133.83"/><polygon class="cls-65" points="224.06 118.69 221.77 118.34 218.81 136.85 221.7 133.63 224.06 118.69"/><polygon class="cls-99" points="226 115.27 223.12 112.75 218 121.78 220.47 124.36 226 115.27"/><polygon class="cls-99" points="218.66 121.6 168.78 129.25 169.08 131.54 218.93 125.19 218.66 121.6"/></g></g></g></svg>