<svg xmlns="http://www.w3.org/2000/svg" viewBox="0 0 500 372.61"><defs><style>.cls-1{fill:#ebebeb;}.cls-2{fill:#e0e0e0;}.cls-3,.cls-9{fill:#e6e6e6;}.cls-4{fill:#f0f0f0;}.cls-5{fill:#e9e9e9;}.cls-6{fill:#f4f4f4;}.cls-11,.cls-13,.cls-14,.cls-16,.cls-17,.cls-18,.cls-21,.cls-24,.cls-7{fill:#fff;}.cls-8{fill:#f5f5f5;}.cls-11,.cls-13,.cls-14,.cls-15,.cls-17,.cls-22,.cls-24,.cls-9{isolation:isolate;}.cls-10{fill:#407bff;}.cls-11{opacity:0.3;}.cls-12{fill:#263238;}.cls-13,.cls-18,.cls-22{opacity:0.2;}.cls-14,.cls-15,.cls-21{opacity:0.5;}.cls-16,.cls-17{opacity:0.4;}.cls-19,.cls-20{fill:none;stroke:#fff;}.cls-19{stroke-linecap:round;stroke-linejoin:round;}.cls-20{stroke-miterlimit:10;}.cls-23{fill:#ebb376;}.cls-24{opacity:0.6;}.cls-25{fill:#d58745;}.cls-26{fill:#de5753;}</style></defs><g id="Layer_2" data-name="Layer 2"><g id="Background_Complete" data-name="Background Complete"><rect class="cls-1" y="327.45" width="500" height="0.25"/><rect class="cls-1" x="416.78" y="343.54" width="33.12" height="0.25"/><rect class="cls-1" x="322.53" y="346.26" width="8.69" height="0.25"/><rect class="cls-1" x="396.59" y="334.26" width="19.19" height="0.25"/><rect class="cls-1" x="52.46" y="335.94" width="43.19" height="0.25"/><rect class="cls-1" x="104.56" y="335.94" width="6.33" height="0.25"/><rect class="cls-1" x="131.47" y="340.16" width="93.68" height="0.25"/><path class="cls-1" d="M237,282.85H43.91a5.71,5.71,0,0,1-5.7-5.71V5.71A5.71,5.71,0,0,1,43.91,0H237a5.71,5.71,0,0,1,5.71,5.71V277.14A5.71,5.71,0,0,1,237,282.85ZM43.91.25a5.46,5.46,0,0,0-5.45,5.46V277.14a5.46,5.46,0,0,0,5.45,5.46H237a5.47,5.47,0,0,0,5.46-5.46V5.71A5.47,5.47,0,0,0,237,.25Z"/><path class="cls-1" d="M453.31,282.85H260.21a5.72,5.72,0,0,1-5.71-5.71V5.71A5.72,5.72,0,0,1,260.21,0h193.1A5.71,5.71,0,0,1,459,5.71V277.14A5.71,5.71,0,0,1,453.31,282.85ZM260.21.25a5.47,5.47,0,0,0-5.46,5.46V277.14a5.47,5.47,0,0,0,5.46,5.46h193.1a5.47,5.47,0,0,0,5.46-5.46V5.71A5.47,5.47,0,0,0,453.31.25Z"/><polygon class="cls-2" points="370.08 241.16 370.08 260.71 378.33 266.71 339.78 266.71 352.1 262.14 352.1 242.52 370.08 241.16"/><path class="cls-2" d="M260.22,266.15v61.59H449.89V266.15Zm3.1,4H415.6v20.13H263.32Z"/><path class="cls-1" d="M260.22,266.15v61.59H419.74V266.15Zm3.1,4H415.6v20.13H263.32Z"/><rect class="cls-2" x="263.32" y="270.14" width="27.76" height="20.13" transform="translate(554.41 560.41) rotate(180)"/><rect class="cls-2" x="375.39" y="280.2" width="40.2" height="10.06" transform="translate(790.99 570.47) rotate(180)"/><rect class="cls-2" x="347" y="284.29" width="25.86" height="5.98" transform="translate(719.86 574.56) rotate(180)"/><rect class="cls-2" x="310.53" y="278.04" width="30.49" height="12.23" transform="translate(651.56 568.31) rotate(180)"/><polygon class="cls-2" points="385.32 294.65 386.06 297.06 395.95 297.06 396.69 294.65 415.6 294.65 415.6 321.37 366.42 321.37 366.42 294.65 385.32 294.65"/><polygon class="cls-2" points="333.84 294.65 334.58 297.06 344.47 297.06 345.2 294.65 364.11 294.65 364.11 321.37 314.93 321.37 314.93 294.65 333.84 294.65"/><polygon class="cls-2" points="282.36 294.65 283.1 297.06 292.98 297.06 293.72 294.65 312.63 294.65 312.63 321.37 263.45 321.37 263.45 294.65 282.36 294.65"/><rect class="cls-2" x="285.22" y="169.6" width="137.76" height="83.24" rx="3.53" transform="translate(708.19 422.44) rotate(180)"/><rect class="cls-3" x="281.98" y="169.6" width="137.76" height="83.24" rx="3.53" transform="translate(701.71 422.44) rotate(180)"/><rect class="cls-4" x="313.28" y="146.39" width="75.14" height="129.66" transform="translate(562.07 -139.64) rotate(90)"/><rect class="cls-5" x="323.97" y="28.58" width="112.62" height="124.62"/><rect class="cls-6" x="328.92" y="33.52" width="103" height="115"/><polygon class="cls-7" points="358.03 33.52 328.92 142.54 328.92 83.52 342.24 33.52 358.03 33.52"/><polygon class="cls-7" points="371.04 33.52 340.34 148.52 334.55 148.52 365.25 33.52 371.04 33.52"/><polygon class="cls-7" points="431.92 64.88 431.92 123.91 425.4 148.52 409.61 148.52 431.92 64.88"/><rect class="cls-5" x="378.27" y="28.58" width="4" height="124.62"/><rect class="cls-5" x="325.92" y="53.87" width="108.5" height="4"/><rect class="cls-2" x="77.81" y="129.35" width="31.01" height="43.87" transform="translate(-57.98 244.6) rotate(-90)"/><rect class="cls-1" x="79.83" y="131.42" width="26.96" height="39.75" transform="translate(-57.98 244.6) rotate(-90)"/><rect class="cls-2" x="93.02" y="90.4" width="31.01" height="43.87" transform="translate(-3.82 220.86) rotate(-90)"/><rect class="cls-1" x="95.04" y="92.47" width="26.96" height="39.75" transform="translate(-3.82 220.86) rotate(-90)"/><rect class="cls-2" x="123.57" y="135.79" width="27.92" height="39.5"/><rect class="cls-1" x="125.39" y="137.65" width="24.28" height="35.79"/><rect class="cls-2" x="136.36" y="83.97" width="31.01" height="43.87"/><rect class="cls-1" x="138.38" y="86.03" width="26.96" height="39.75"/><rect class="cls-2" x="166" y="130.75" width="24.28" height="34.35" transform="translate(326.06 -30.21) rotate(90)"/><rect class="cls-1" x="167.58" y="132.37" width="21.11" height="31.12" transform="translate(326.06 -30.21) rotate(90)"/><path class="cls-1" d="M64,205.56H172.42a8.84,8.84,0,0,1,8.83,8.83l12,76.47H67.13l-12-76.47A8.83,8.83,0,0,1,64,205.56Z"/><path class="cls-2" d="M192.93,235.13l-.13-.39h42v93h-52V245.89A10.62,10.62,0,0,1,192.93,235.13Z"/><path class="cls-4" d="M235.24,235.11h0A10.78,10.78,0,0,1,246,245.89v81.85H224.46V245.89A10.78,10.78,0,0,1,235.24,235.11Z"/><path class="cls-2" d="M71.93,235.13l-.13-.39h42v93h-52V245.89A10.62,10.62,0,0,1,71.93,235.13Z"/><rect class="cls-2" x="125.02" y="262.24" width="92.41" height="65.5" transform="translate(342.45 589.97) rotate(180)"/><path class="cls-8" d="M118.81,255.52h104a0,0,0,0,1,0,0v22.71a0,0,0,0,1,0,0h-104a11.36,11.36,0,0,1-11.36-11.36v0A11.36,11.36,0,0,1,118.81,255.52Z" transform="translate(330.22 533.76) rotate(180)"/><path class="cls-4" d="M114.24,235.11h0A10.78,10.78,0,0,1,125,245.89v81.85H103.46V245.89A10.78,10.78,0,0,1,114.24,235.11Z"/><path class="cls-2" d="M84.79,292H67.13l-12-77.6A8.83,8.83,0,0,1,64,205.56h0a8.84,8.84,0,0,1,8.84,8.83Z"/><path class="cls-8" d="M59.33,20.52V50.08a2.81,2.81,0,0,0,3,2.77h99.82s11.54-5.39,10.72-12.9c-.65-6-1.33-10.89-1.89-14.61a9.18,9.18,0,0,0-9.14-7.82H62.33A3,3,0,0,0,59.33,20.52Z"/><path class="cls-9" d="M59.33,20.52V50.08a2.81,2.81,0,0,0,3,2.77h8.81S82.68,47.46,81.86,40C81.2,34,80.53,29.06,80,25.34a9.18,9.18,0,0,0-9.14-7.82h-8.5A3,3,0,0,0,59.33,20.52Z"/><path class="cls-2" d="M170.58,42.32H83.38s-2.88,6.39-7.77,9h85.2S169.83,47.21,170.58,42.32Z"/><polygon class="cls-1" points="164.56 48.34 80.38 48.34 81.63 51.34 164.56 51.34 164.56 48.34"/><polygon class="cls-1" points="167.57 44.58 83.38 44.58 84.64 47.59 167.57 47.59 167.57 44.58"/><rect class="cls-2" x="86.39" y="40.07" width="2.13" height="0.88" transform="translate(174.91 81.01) rotate(180)"/><rect class="cls-2" x="89.4" y="40.07" width="2.13" height="0.88" transform="translate(180.92 81.01) rotate(180)"/></g><g id="Shadow"><ellipse id="_Path_" data-name="&lt;Path&gt;" class="cls-8" cx="250" cy="361.29" rx="193.89" ry="11.32"/></g><g id="Plant"><path class="cls-10" d="M90.7,289.15c.21,1.47-3.78,2.44-7,3,.27,2.67,2,5.37,4.49,7.89,3.09-1.74,7.49-4,8.31-3.48s-3.63,3.53-6.45,5.25a59,59,0,0,0,6.39,4.84c1.38-1.3,3-2.43,4-1.82s.73,2.64.23,4.42c3.36,2,5.87,3.15,5.87,3.15a68.29,68.29,0,0,0,2.25-9.53c-.17-.33-.34-.67-.5-1-.54-1.25,0-1.78.88-2a33.53,33.53,0,0,0,.06-6.86c-3.8-.8-8.42-2.27-6.69-4.55,1-1.38,3-1.53,4.94-1.19a8,8,0,0,0-.94-1.28c-6.91-7.61-11.73,0-11.73,0-4-3.34-9.67-2.44-10.89,2.79C86.12,288.2,90.44,287.34,90.7,289.15Z"/><path class="cls-11" d="M90.7,289.15c.21,1.47-3.78,2.44-7,3,.27,2.67,2,5.37,4.49,7.89,3.09-1.74,7.49-4,8.31-3.48s-3.63,3.53-6.45,5.25a59,59,0,0,0,6.39,4.84c1.38-1.3,3-2.43,4-1.82s.73,2.64.23,4.42c3.36,2,5.87,3.15,5.87,3.15a68.29,68.29,0,0,0,2.25-9.53c-.17-.33-.34-.67-.5-1-.54-1.25,0-1.78.88-2a33.53,33.53,0,0,0,.06-6.86c-3.8-.8-8.42-2.27-6.69-4.55,1-1.38,3-1.53,4.94-1.19a8,8,0,0,0-.94-1.28c-6.91-7.61-11.73,0-11.73,0-4-3.34-9.67-2.44-10.89,2.79C86.12,288.2,90.44,287.34,90.7,289.15Z"/><path class="cls-10" d="M99.33,345.14l-1-.08c0-.52,4.09-51.53-7.36-56.34a3.88,3.88,0,0,0-3.47.09C83.37,291,81.39,299.89,81.37,300l-1-.21c.08-.39,2.1-9.48,6.65-11.85a4.89,4.89,0,0,1,4.32-.12C103.47,292.89,99.5,343,99.33,345.14Z"/><path class="cls-10" d="M100.77,344c-.2-2.29-4.88-56.27,3.86-62,2.1-1.38,4-1.67,5.55-.87,4.13,2.08,4.67,10.91,4.69,11.29l-1,.05c0-.08-.53-8.62-4.14-10.45-1.25-.62-2.78-.35-4.55.81-8.24,5.41-3.46,60.52-3.42,61.07Z"/><path class="cls-10" d="M102.08,348.4c-.06-1.76-1.5-43.08,6.45-46.69a5.58,5.58,0,0,1,4.74,0c5.46,2.4,8.83,12.58,9,13l-.95.31c0-.1-3.38-10.18-8.43-12.41a4.58,4.58,0,0,0-3.91,0c-6.1,2.77-6.31,34-5.87,45.74Z"/><path class="cls-10" d="M100.06,346.51l-1-.12c1.41-12.29,4.09-45.06-.29-49a1.73,1.73,0,0,0-1.79-.55C94,298,92.25,308.65,91.81,312.66l-1-.11c.17-1.53,1.77-15.07,5.8-16.61a2.62,2.62,0,0,1,2.81.74C105.09,301.73,100.27,344.68,100.06,346.51Z"/><polygon class="cls-12" points="83.37 323.2 119.3 323.2 116.3 363.44 86.37 363.44 83.37 323.2"/><polygon class="cls-13" points="94.28 323.2 95.28 363.44 116.3 363.44 119.3 323.2 94.28 323.2"/><path class="cls-10" d="M88.26,308.43c-.37,1-3.16.21-5.35-.57-.75,1.73-.58,4,.07,6.4,2.49,0,6,.08,6.31.7s-3.45.94-5.78,1a40.58,40.58,0,0,0,2.29,5.17c1.29-.32,2.68-.46,3.06.24s-.45,1.88-1.37,2.81c1.4,2.36,2.54,4,2.54,4a48.07,48.07,0,0,0,4.65-5.11c0-.27,0-.53,0-.81.1-.95.61-1.1,1.22-.9a24,24,0,0,0,2.39-4.22c-2.07-1.79-4.42-4.29-2.57-5.1,1.12-.49,2.35.07,3.45,1a5.11,5.11,0,0,0-.14-1.11c-1.65-7.07-7.23-4-7.23-4-1.33-3.44-5.13-4.82-7.67-2C85.77,306.27,88.73,307.22,88.26,308.43Z"/><path class="cls-11" d="M88.26,308.43c-.37,1-3.16.21-5.35-.57-.75,1.73-.58,4,.07,6.4,2.49,0,6,.08,6.31.7s-3.45.94-5.78,1a40.58,40.58,0,0,0,2.29,5.17c1.29-.32,2.68-.46,3.06.24s-.45,1.88-1.37,2.81c1.4,2.36,2.54,4,2.54,4a48.07,48.07,0,0,0,4.65-5.11c0-.27,0-.53,0-.81.1-.95.61-1.1,1.22-.9a24,24,0,0,0,2.39-4.22c-2.07-1.79-4.42-4.29-2.57-5.1,1.12-.49,2.35.07,3.45,1a5.11,5.11,0,0,0-.14-1.11c-1.65-7.07-7.23-4-7.23-4-1.33-3.44-5.13-4.82-7.67-2C85.77,306.27,88.73,307.22,88.26,308.43Z"/><path class="cls-10" d="M114.94,313.21a13.49,13.49,0,0,0-3.28.69,7.65,7.65,0,0,1-.49-2.38c-.23-7.25,5-4.19,7.7-6.32a6,6,0,0,1,4.59-1.44,9.56,9.56,0,0,0-.62,1.24,1.13,1.13,0,0,0,.87,1.55,3.26,3.26,0,0,0,2-.24,3.71,3.71,0,0,0,.52-.36,10,10,0,0,1,1,2.42,14.08,14.08,0,0,1,.47,3.1,10.52,10.52,0,0,0-1.22.34,1.13,1.13,0,0,0-.45,1.72,5,5,0,0,0,1.5,1.05,16.83,16.83,0,0,1-.92,3.4l-.37.06c-.26,0-.52.12-.78.19a2.23,2.23,0,0,0-.43.16,1.16,1.16,0,0,0-.68.88,1.13,1.13,0,0,0,.43,1,4.93,4.93,0,0,0,.54.34,8.09,8.09,0,0,1-2.87,2.89,31.81,31.81,0,0,1-3.06-1.61c.22-.29.44-.58.64-.88a1.72,1.72,0,0,0,.31-1.14,1.6,1.6,0,0,0-.59-1,1.53,1.53,0,0,0-2.16.28c-.24.36-.51.69-.77,1a19.17,19.17,0,0,1-3.68-3.58l.11,0a11.74,11.74,0,0,1,2-.34,1.54,1.54,0,1,0-.39-3.05Z"/><path class="cls-14" d="M114.94,313.21a13.49,13.49,0,0,0-3.28.69,7.65,7.65,0,0,1-.49-2.38c-.23-7.25,5-4.19,7.7-6.32a6,6,0,0,1,4.59-1.44,9.56,9.56,0,0,0-.62,1.24,1.13,1.13,0,0,0,.87,1.55,3.26,3.26,0,0,0,2-.24,3.71,3.71,0,0,0,.52-.36,10,10,0,0,1,1,2.42,14.08,14.08,0,0,1,.47,3.1,10.52,10.52,0,0,0-1.22.34,1.13,1.13,0,0,0-.45,1.72,5,5,0,0,0,1.5,1.05,16.83,16.83,0,0,1-.92,3.4l-.37.06c-.26,0-.52.12-.78.19a2.23,2.23,0,0,0-.43.16,1.16,1.16,0,0,0-.68.88,1.13,1.13,0,0,0,.43,1,4.93,4.93,0,0,0,.54.34,8.09,8.09,0,0,1-2.87,2.89,31.81,31.81,0,0,1-3.06-1.61c.22-.29.44-.58.64-.88a1.72,1.72,0,0,0,.31-1.14,1.6,1.6,0,0,0-.59-1,1.53,1.53,0,0,0-2.16.28c-.24.36-.51.69-.77,1a19.17,19.17,0,0,1-3.68-3.58l.11,0a11.74,11.74,0,0,1,2-.34,1.54,1.54,0,1,0-.39-3.05Z"/><path class="cls-10" d="M117,288.22a9.39,9.39,0,0,1,2-1.07,5.37,5.37,0,0,0-.79-1.47c-3.06-3.9-4.44,0-6.82.06a4.09,4.09,0,0,0-3,1.26,6.74,6.74,0,0,1,.87.38.77.77,0,0,1,.22,1.2,2.22,2.22,0,0,1-1.17.77,3.27,3.27,0,0,1-.44,0,7.69,7.69,0,0,0,.54,1.71,9.55,9.55,0,0,0,1.12,1.83,6.29,6.29,0,0,1,.79-.35.77.77,0,0,1,1,.7,3.57,3.57,0,0,1-.33,1.21,11.13,11.13,0,0,0,2,1.38l.22-.13a4.59,4.59,0,0,1,.5-.24,2.65,2.65,0,0,1,.3-.11.77.77,0,0,1,1,.9,2.46,2.46,0,0,1-.13.41,5.47,5.47,0,0,0,2.77.27,19.46,19.46,0,0,0,.9-2.19l-.72-.18a1.21,1.21,0,0,1-.66-.47,1.05,1.05,0,0,1,.32-1.45,1,1,0,0,1,.8-.14c.28.08.57.14.85.2a12.63,12.63,0,0,0,.37-3.49l-.07,0a8.69,8.69,0,0,0-1.22.72,1.06,1.06,0,0,1-1.46-.32A1.08,1.08,0,0,1,117,288.22Z"/><path class="cls-11" d="M117,288.22a9.39,9.39,0,0,1,2-1.07,5.37,5.37,0,0,0-.79-1.47c-3.06-3.9-4.44,0-6.82.06a4.09,4.09,0,0,0-3,1.26,6.74,6.74,0,0,1,.87.38.77.77,0,0,1,.22,1.2,2.22,2.22,0,0,1-1.17.77,3.27,3.27,0,0,1-.44,0,7.69,7.69,0,0,0,.54,1.71,9.55,9.55,0,0,0,1.12,1.83,6.29,6.29,0,0,1,.79-.35.77.77,0,0,1,1,.7,3.57,3.57,0,0,1-.33,1.21,11.13,11.13,0,0,0,2,1.38l.22-.13a4.59,4.59,0,0,1,.5-.24,2.65,2.65,0,0,1,.3-.11.77.77,0,0,1,1,.9,2.46,2.46,0,0,1-.13.41,5.47,5.47,0,0,0,2.77.27,19.46,19.46,0,0,0,.9-2.19l-.72-.18a1.21,1.21,0,0,1-.66-.47,1.05,1.05,0,0,1,.32-1.45,1,1,0,0,1,.8-.14c.28.08.57.14.85.2a12.63,12.63,0,0,0,.37-3.49l-.07,0a8.69,8.69,0,0,0-1.22.72,1.06,1.06,0,0,1-1.46-.32A1.08,1.08,0,0,1,117,288.22Z"/><path class="cls-10" d="M87.74,295.48c-.21,1.47,3.78,2.43,7,3-.27,2.67-2,5.36-4.5,7.88-3.08-1.74-7.49-4-8.3-3.47s3.63,3.53,6.45,5.24A59,59,0,0,1,82,313c-1.38-1.29-3-2.43-4-1.81s-.73,2.63-.23,4.42c-3.36,1.95-5.87,3.15-5.87,3.15a68.74,68.74,0,0,1-2.25-9.53c.17-.34.34-.68.49-1,.55-1.25,0-1.79-.87-2a32.92,32.92,0,0,1-.06-6.87c3.8-.79,8.42-2.27,6.69-4.55-1-1.37-2.95-1.53-4.94-1.18a8,8,0,0,1,.94-1.28c6.91-7.62,11.73,0,11.73,0,4-3.35,9.66-2.44,10.88,2.79C92.32,294.52,88,293.66,87.74,295.48Z"/><path class="cls-14" d="M87.74,295.48c-.21,1.47,3.78,2.43,7,3-.27,2.67-2,5.36-4.5,7.88-3.08-1.74-7.49-4-8.3-3.47s3.63,3.53,6.45,5.24A59,59,0,0,1,82,313c-1.38-1.29-3-2.43-4-1.81s-.73,2.63-.23,4.42c-3.36,1.95-5.87,3.15-5.87,3.15a68.74,68.74,0,0,1-2.25-9.53c.17-.34.34-.68.49-1,.55-1.25,0-1.79-.87-2a32.92,32.92,0,0,1-.06-6.87c3.8-.79,8.42-2.27,6.69-4.55-1-1.37-2.95-1.53-4.94-1.18a8,8,0,0,1,.94-1.28c6.91-7.62,11.73,0,11.73,0,4-3.35,9.66-2.44,10.88,2.79C92.32,294.52,88,293.66,87.74,295.48Z"/></g><g id="Lamp"><polygon class="cls-10" points="385.45 363.44 404.6 236.19 404.6 363.44 409.74 363.44 409.74 235.39 428.91 363.44 434.42 363.44 410.42 203.16 409.74 203.26 409.74 198.05 404.6 198.05 404.6 203.24 403.89 203.16 379.83 363.44 385.45 363.44"/><polygon class="cls-11" points="385.45 363.44 404.6 236.19 404.6 363.44 409.74 363.44 409.74 235.39 428.91 363.44 434.42 363.44 410.42 203.16 409.74 203.26 409.74 198.05 404.6 198.05 404.6 203.24 403.89 203.16 379.83 363.44 385.45 363.44"/><polygon class="cls-10" points="433.52 220.94 380.54 220.94 384.83 176.67 429.23 176.67 433.52 220.94"/><g class="cls-15"><polygon class="cls-7" points="433.52 220.94 380.54 220.94 384.83 176.67 429.23 176.67 433.52 220.94"/></g></g><g id="Fingerprint"><path class="cls-10" d="M300,163.46H282.58a1.4,1.4,0,0,1-1.4-1.4V120.8a1.17,1.17,0,1,0-1.67-1,1.15,1.15,0,0,0,.67,1v41.26a2.4,2.4,0,0,0,2.4,2.4H300a1.4,1.4,0,0,1,1.4,1.4v23.61h1V165.86A2.4,2.4,0,0,0,300,163.46Z"/><path class="cls-16" d="M300,163.46H282.58a1.4,1.4,0,0,1-1.4-1.4V120.8a1.17,1.17,0,1,0-1.67-1,1.15,1.15,0,0,0,.67,1v41.26a2.4,2.4,0,0,0,2.4,2.4H300a1.4,1.4,0,0,1,1.4,1.4v23.61h1V165.86A2.4,2.4,0,0,0,300,163.46Z"/><rect class="cls-10" x="280.18" y="188.47" width="43.35" height="45.47" rx="2.69"/><rect class="cls-17" x="280.18" y="188.47" width="43.35" height="45.47" rx="2.69"/><rect class="cls-18" x="298.94" y="214.62" width="5.83" height="5.83"/><rect class="cls-18" x="305.27" y="195.62" width="5.83" height="5.83"/><rect class="cls-18" x="292.61" y="220.95" width="5.83" height="5.83"/><rect class="cls-18" x="305.27" y="201.96" width="5.83" height="5.83"/><rect class="cls-18" x="305.27" y="208.29" width="5.83" height="5.83"/><rect class="cls-18" x="298.94" y="201.96" width="5.83" height="5.83"/><rect class="cls-18" x="298.94" y="188.97" width="5.83" height="6.16"/><rect class="cls-18" x="292.61" y="214.62" width="5.83" height="5.83"/><rect class="cls-18" x="298.94" y="195.62" width="5.83" height="5.83"/><rect class="cls-18" x="298.94" y="220.95" width="5.83" height="5.83"/><rect class="cls-18" x="305.27" y="220.95" width="5.83" height="5.83"/><rect class="cls-18" x="298.94" y="208.29" width="5.83" height="5.83"/><rect class="cls-18" x="305.27" y="188.97" width="5.83" height="6.16"/><rect class="cls-18" x="280.68" y="214.62" width="5.1" height="5.83"/><rect class="cls-18" x="280.68" y="195.62" width="5.1" height="5.83"/><rect class="cls-18" x="280.68" y="208.29" width="5.1" height="5.83"/><rect class="cls-18" x="280.68" y="201.96" width="5.1" height="5.83"/><rect class="cls-18" x="305.27" y="214.62" width="5.83" height="5.83"/><path class="cls-18" d="M317.93,195.12H323v-4a2.19,2.19,0,0,0-2.19-2.18h-2.91Z"/><rect class="cls-18" x="311.6" y="195.62" width="5.83" height="5.83"/><rect class="cls-18" x="280.68" y="220.95" width="5.1" height="5.83"/><rect class="cls-18" x="311.6" y="201.96" width="5.83" height="5.83"/><rect class="cls-18" x="311.6" y="208.29" width="5.83" height="5.83"/><rect class="cls-18" x="311.6" y="214.62" width="5.83" height="5.83"/><rect class="cls-18" x="311.6" y="220.95" width="5.83" height="5.83"/><rect class="cls-18" x="317.93" y="220.95" width="5.1" height="5.83"/><rect class="cls-18" x="311.6" y="188.97" width="5.83" height="6.16"/><rect class="cls-18" x="298.94" y="227.28" width="5.83" height="6.16"/><rect class="cls-18" x="305.27" y="227.28" width="5.83" height="6.16"/><rect class="cls-18" x="317.93" y="208.29" width="5.1" height="5.83"/><rect class="cls-18" x="311.6" y="227.28" width="5.83" height="6.16"/><rect class="cls-18" x="317.93" y="214.62" width="5.1" height="5.83"/><path class="cls-18" d="M285.77,227.28h-5.09v4a2.19,2.19,0,0,0,2.19,2.19h2.9Z"/><path class="cls-18" d="M317.93,227.28v6.16h2.91a2.19,2.19,0,0,0,2.19-2.19v-4Z"/><path class="cls-18" d="M285.77,195.12V189h-2.9a2.19,2.19,0,0,0-2.19,2.18v4Z"/><rect class="cls-18" x="317.93" y="201.96" width="5.1" height="5.83"/><rect class="cls-18" x="317.93" y="195.62" width="5.1" height="5.83"/><rect class="cls-18" x="286.27" y="208.29" width="5.83" height="5.83"/><rect class="cls-18" x="286.27" y="220.95" width="5.83" height="5.83"/><rect class="cls-18" x="292.61" y="188.97" width="5.83" height="6.16"/><rect class="cls-18" x="286.27" y="214.62" width="5.83" height="5.83"/><rect class="cls-18" x="292.61" y="201.96" width="5.83" height="5.83"/><rect class="cls-18" x="292.61" y="195.62" width="5.83" height="5.83"/><rect class="cls-18" x="292.61" y="227.28" width="5.83" height="6.16"/><rect class="cls-18" x="286.27" y="227.28" width="5.83" height="6.16"/><rect class="cls-18" x="286.27" y="188.97" width="5.83" height="6.16"/><rect class="cls-18" x="292.61" y="208.29" width="5.83" height="5.83"/><rect class="cls-18" x="286.27" y="201.96" width="5.83" height="5.83"/><rect class="cls-18" x="286.27" y="195.62" width="5.83" height="5.83"/><path class="cls-7" d="M312.21,204.49a8.55,8.55,0,0,0-.37-1.34A10.58,10.58,0,0,0,293.6,200a10.31,10.31,0,0,0-1.39,2.27,10.55,10.55,0,0,0-.94,4.35v9.08a10.34,10.34,0,0,0,.32,2.57h0a9.16,9.16,0,0,0,.67,1.86h0a10.33,10.33,0,0,0,.9,1.59h0c.27.36.54.7.83,1a10.8,10.8,0,0,0,1.15,1.1,11.21,11.21,0,0,0,1.05.76,10.9,10.9,0,0,0,2,1h0c.34.12.68.23,1,.32a12,12,0,0,0,1.33.25,8.76,8.76,0,0,0,1,.07h.27a11,11,0,0,0,1.63-.12c.34-.06.68-.13,1-.21h0a10.66,10.66,0,0,0,3.43-1.59,9.82,9.82,0,0,0,1.07-.86,10.68,10.68,0,0,0,2.26-2.94,9.93,9.93,0,0,0,.73-1.78,10.1,10.1,0,0,0,.45-2.77s0,0,0,0,0-.21,0-.31v-9.08A10.38,10.38,0,0,0,312.21,204.49ZM309.84,221a9.48,9.48,0,0,1-2.08,2.25,8.1,8.1,0,0,1-.93.64,9.54,9.54,0,0,1-2.77,1.15h0c-.32.07-.65.13-1,.17a9.71,9.71,0,0,1-1.21.08h-.45c-.35,0-.68,0-1-.1a10.14,10.14,0,0,1-1.24-.28c-.35-.1-.69-.23-1-.36a10.19,10.19,0,0,1-2-1.14,9.15,9.15,0,0,1-.95-.82,8.81,8.81,0,0,1-1-1.12,9.59,9.59,0,0,1-.78-1.21h0a9.15,9.15,0,0,1-.8-2,9.49,9.49,0,0,1-.35-2.57v-9.08a9.5,9.5,0,0,1,2-5.82,9.65,9.65,0,0,1,3.22-2.7,9.43,9.43,0,0,1,4.39-1.07,9.6,9.6,0,0,1,9.36,7.48v0a9.56,9.56,0,0,1,.23,2.09v9.16a10.19,10.19,0,0,1-.18,1.76h0a9.6,9.6,0,0,1-.75,2.25A8.77,8.77,0,0,1,309.84,221Z"/><path class="cls-7" d="M303.06,212.28c-1.07,3.39-2.46,7.85-1.66,13,.05.33.11.66.18,1a8.76,8.76,0,0,1-1-.07c-.07-.35-.13-.69-.17-1-.76-5.3.65-9.81,1.72-13.24,1.14-3.64,1.61-5.42-.11-6.15a1.65,1.65,0,0,0-1.65.22c-2.73,1.81-5.17,9.62-6.14,15.45q-.12.69-.21,1.32c-.29-.33-.56-.67-.83-1h0c.07-.48.16-1,.26-1.49h0c1.1-5.78,3.45-13.13,6.37-15.06a2.65,2.65,0,0,1,2.59-.31C305,206,304.15,208.79,303.06,212.28Z"/><path class="cls-7" d="M301.32,212c-1,3.21-2.47,7.91-2.18,12.91,0,.35,0,.7.08,1.06-.35-.09-.69-.2-1-.32h0c0-.37-.05-.73-.06-1.1-.2-5,1.25-9.66,2.25-12.85a16.82,16.82,0,0,0,.84-3.25c-1.21,1.08-5,9.88-5.07,15a7.06,7.06,0,0,0,.05,1.24,11.21,11.21,0,0,1-1.05-.76c0-.41,0-.85.05-1.3.42-5.3,3.61-13.29,5.35-14.87a1,1,0,0,1,1.07-.31C302.64,207.84,302.17,209.33,301.32,212Z"/><path class="cls-7" d="M304.06,225.08a8.92,8.92,0,0,0,.42.92c-.32.08-.66.15-1,.21a8.64,8.64,0,0,1-.42-1c-.82-2.14-1.25-5.39.24-9.83,2.91-8.66,2.4-10.72.24-11.86a3.84,3.84,0,0,0-3.66-.12c-3,1.48-5.59,6.83-7.26,14.87-.13.61-.25,1.23-.36,1.87a9.16,9.16,0,0,1-.67-1.86h0c.21-1,.44-2,.68-3,1.74-6.88,4.23-11.35,7.17-12.8a4.76,4.76,0,0,1,4.57.12c3,1.6,3.07,4.65.24,13.06-1.45,4.32-1,7.4-.2,9.35Z"/><path class="cls-7" d="M309,223.55a9.82,9.82,0,0,1-1.07.86l-.41-.13a2.92,2.92,0,0,1-.68-.35,5.19,5.19,0,0,1-2.21-3.23c-.52-1.87.33-4.57,1.24-7.42s1.85-5.83,1.4-8a5.1,5.1,0,0,0-2.63-3.71c-1.75-.87-4.08-.72-6.55.43s-4.59,4.83-5.81,7.68c-.43,1-.77,1.92-1,2.59v-2.81c.29-.68.62-1.42,1-2.16,1.29-2.53,3.1-5.14,5.38-6.2,2.76-1.29,5.4-1.44,7.43-.42a6.06,6.06,0,0,1,3.16,4.4c.5,2.4-.48,5.49-1.43,8.48-.86,2.71-1.67,5.26-1.23,6.85a4.08,4.08,0,0,0,2.18,2.86l.11.05A3,3,0,0,0,309,223.55Z"/><path class="cls-7" d="M312,218.83a9.93,9.93,0,0,1-.73,1.78,4,4,0,0,1-1.41.43h-.28l-.25,0a2.61,2.61,0,0,1-2.3-1.95c-.44-1.49.28-4.29,1-7.25a28.59,28.59,0,0,0,1.12-5.75c0-3.08-.8-6.38-6.71-7.43-3-.54-7.32,1.38-9.85,5.49-.5.8.15-2.28-.4-1.83.36-.82.92-.78,1.47-1.47,1.11-.72,4.2-3.77,8.95-3.18,6.81.85,7.54,5.38,7.54,8.42a28,28,0,0,1-1.16,6c-.66,2.57-1.4,5.49-1,6.72A1.63,1.63,0,0,0,309.4,220a2.36,2.36,0,0,0,1.11-.2A4.41,4.41,0,0,0,312,218.83Z"/><path class="cls-7" d="M312.44,213.39v2.35c0,.1,0,.21,0,.31s0,0,0,0a4.24,4.24,0,0,1-1.17,1.52h0a2,2,0,0,1-1.19.38h-.29a.91.91,0,0,1-.71-.51c-.45-.83.11-2.5.48-3.44a20.23,20.23,0,0,0,1.66-9.44v0c0-.57.06-.92.06-.94a.52.52,0,0,1,.53-.47h0a8.55,8.55,0,0,1,.37,1.34c0,.74-.12,1.48-.19,2.22-.14,1.42-.31,2.84-.58,4.25-.07.38.25.24.17.62a17.88,17.88,0,0,1-.88,2.19c-.24.55-.51,1.09-.7,1.66-.12.34-.56,1.94.34,1.59a2,2,0,0,0,.81-.77c.09-.14.18-.28.26-.43a11.54,11.54,0,0,0,.74-1.69C312.27,213.89,312.36,213.64,312.44,213.39Z"/></g><g id="Iris_Recognition" data-name="Iris Recognition"><path class="cls-10" d="M238.71,43.78v25.5a1.4,1.4,0,0,1-1.4,1.4H211.38a1.16,1.16,0,0,0-1-.68,1.18,1.18,0,1,0,1,1.68h25.93a2.41,2.41,0,0,0,2.4-2.4V43.78Z"/><path class="cls-16" d="M238.71,43.78v25.5a1.4,1.4,0,0,1-1.4,1.4H211.38a1.16,1.16,0,0,0-1-.68,1.18,1.18,0,1,0,1,1.68h25.93a2.41,2.41,0,0,0,2.4-2.4V43.78Z"/><rect class="cls-10" x="217.53" y="7.3" width="43.35" height="45.47" rx="2.69" transform="translate(269.25 -209.17) rotate(90)"/><rect class="cls-17" x="217.53" y="7.3" width="43.35" height="45.47" rx="2.69" transform="translate(269.25 -209.17) rotate(90)"/><rect class="cls-18" x="229.96" y="27.12" width="5.83" height="5.83"/><rect class="cls-18" x="248.95" y="33.46" width="5.83" height="5.83"/><rect class="cls-18" x="223.63" y="20.79" width="5.83" height="5.83"/><rect class="cls-18" x="242.62" y="33.46" width="5.83" height="5.83"/><rect class="cls-18" x="236.29" y="33.46" width="5.83" height="5.83"/><rect class="cls-18" x="242.62" y="27.12" width="5.83" height="5.83"/><rect class="cls-18" x="255.29" y="27.12" width="6.16" height="5.83"/><rect class="cls-18" x="229.96" y="20.79" width="5.83" height="5.83"/><rect class="cls-18" x="248.95" y="27.12" width="5.83" height="5.83"/><rect class="cls-18" x="223.63" y="27.12" width="5.83" height="5.83"/><rect class="cls-18" x="223.63" y="33.46" width="5.83" height="5.83"/><rect class="cls-18" x="236.29" y="27.12" width="5.83" height="5.83"/><rect class="cls-18" x="255.29" y="33.46" width="6.16" height="5.83"/><rect class="cls-18" x="229.96" y="8.86" width="5.83" height="5.1"/><rect class="cls-18" x="248.95" y="8.86" width="5.83" height="5.1"/><rect class="cls-18" x="236.29" y="8.86" width="5.83" height="5.1"/><rect class="cls-18" x="242.62" y="8.86" width="5.83" height="5.1"/><rect class="cls-18" x="229.96" y="33.46" width="5.83" height="5.83"/><path class="cls-18" d="M255.29,46.12v5.1h4A2.19,2.19,0,0,0,261.44,49V46.12Z"/><rect class="cls-18" x="248.95" y="39.79" width="5.83" height="5.83"/><rect class="cls-18" x="223.63" y="8.86" width="5.83" height="5.1"/><rect class="cls-18" x="242.62" y="39.79" width="5.83" height="5.83"/><rect class="cls-18" x="236.29" y="39.79" width="5.83" height="5.83"/><rect class="cls-18" x="229.96" y="39.79" width="5.83" height="5.83"/><rect class="cls-18" x="223.63" y="39.79" width="5.83" height="5.83"/><rect class="cls-18" x="223.63" y="46.12" width="5.83" height="5.1"/><rect class="cls-18" x="255.29" y="39.79" width="6.16" height="5.83"/><rect class="cls-18" x="216.97" y="27.12" width="6.16" height="5.83"/><rect class="cls-18" x="216.97" y="33.46" width="6.16" height="5.83"/><rect class="cls-18" x="236.29" y="46.12" width="5.83" height="5.1"/><rect class="cls-18" x="216.97" y="39.79" width="6.16" height="5.83"/><rect class="cls-18" x="229.96" y="46.12" width="5.83" height="5.1"/><path class="cls-18" d="M223.13,14V8.86h-4A2.2,2.2,0,0,0,217,11.05V14Z"/><path class="cls-18" d="M223.13,46.12H217V49a2.2,2.2,0,0,0,2.19,2.19h4Z"/><path class="cls-18" d="M255.29,14h6.15V11.05a2.19,2.19,0,0,0-2.18-2.19h-4Z"/><rect class="cls-18" x="242.62" y="46.12" width="5.83" height="5.1"/><rect class="cls-18" x="248.95" y="46.12" width="5.83" height="5.1"/><rect class="cls-18" x="236.29" y="14.46" width="5.83" height="5.83"/><rect class="cls-18" x="223.63" y="14.46" width="5.83" height="5.83"/><rect class="cls-18" x="255.29" y="20.79" width="6.16" height="5.83"/><rect class="cls-18" x="229.96" y="14.46" width="5.83" height="5.83"/><rect class="cls-18" x="242.62" y="20.79" width="5.83" height="5.83"/><rect class="cls-18" x="248.95" y="20.79" width="5.83" height="5.83"/><rect class="cls-18" x="216.97" y="20.79" width="6.16" height="5.83"/><rect class="cls-18" x="216.97" y="14.46" width="6.16" height="5.83"/><rect class="cls-18" x="255.29" y="14.46" width="6.16" height="5.83"/><rect class="cls-18" x="236.29" y="20.79" width="5.83" height="5.83"/><rect class="cls-18" x="242.62" y="14.46" width="5.83" height="5.83"/><rect class="cls-18" x="248.95" y="14.46" width="5.83" height="5.83"/><path class="cls-19" d="M226,29.86s5.9,7,13.19,7,13.18-7,13.18-7-5.9-7-13.18-7S226,29.86,226,29.86Z"/><path class="cls-20" d="M243.8,28.86a4.6,4.6,0,1,1-4.59-4.59A4.6,4.6,0,0,1,243.8,28.86Z"/><path class="cls-20" d="M239.72,26.84a1.49,1.49,0,1,1,1.49,1.48A1.49,1.49,0,0,1,239.72,26.84Z"/><line class="cls-19" x1="239.21" y1="22.84" x2="239.21" y2="18.15"/><line class="cls-19" x1="243.3" y1="23.18" x2="244.98" y2="19.37"/><line class="cls-19" x1="247.23" y1="24.93" x2="249.58" y2="22.14"/><line class="cls-19" x1="250.38" y1="27.08" x2="252.65" y2="25.56"/><line class="cls-19" x1="235.11" y1="23.18" x2="233.43" y2="19.37"/><line class="cls-19" x1="231.18" y1="24.93" x2="228.83" y2="22.14"/><line class="cls-19" x1="228.03" y1="27.08" x2="225.76" y2="25.56"/></g><g id="Face_Recognition" data-name="Face Recognition"><path class="cls-10" d="M171.24,72.26a1.15,1.15,0,0,0-1,.65H143.65a2.41,2.41,0,0,0-2.4,2.4V102.6a1.4,1.4,0,0,1-1.4,1.4H129.17v1h10.68a2.41,2.41,0,0,0,2.4-2.4V75.31a1.4,1.4,0,0,1,1.4-1.4h26.53a1.17,1.17,0,1,0,1.06-1.65Z"/><path class="cls-16" d="M171.24,72.26a1.15,1.15,0,0,0-1,.65H143.65a2.41,2.41,0,0,0-2.4,2.4V102.6a1.4,1.4,0,0,1-1.4,1.4H129.17v1h10.68a2.41,2.41,0,0,0,2.4-2.4V75.31a1.4,1.4,0,0,1,1.4-1.4h26.53a1.17,1.17,0,1,0,1.06-1.65Z"/><rect class="cls-10" x="85.82" y="81.76" width="43.35" height="45.47" rx="2.69"/><rect class="cls-17" x="85.82" y="81.76" width="43.35" height="45.47" rx="2.69"/><rect class="cls-18" x="104.58" y="107.91" width="5.83" height="5.83"/><rect class="cls-18" x="110.91" y="88.92" width="5.83" height="5.83"/><rect class="cls-18" x="98.24" y="114.24" width="5.83" height="5.83"/><rect class="cls-18" x="110.91" y="95.25" width="5.83" height="5.83"/><rect class="cls-18" x="110.91" y="101.58" width="5.83" height="5.83"/><rect class="cls-18" x="104.58" y="95.25" width="5.83" height="5.83"/><rect class="cls-18" x="104.58" y="82.26" width="5.83" height="6.16"/><rect class="cls-18" x="98.24" y="107.91" width="5.83" height="5.83"/><rect class="cls-18" x="104.58" y="88.92" width="5.83" height="5.83"/><rect class="cls-18" x="104.58" y="114.24" width="5.83" height="5.83"/><rect class="cls-18" x="110.91" y="114.24" width="5.83" height="5.83"/><rect class="cls-18" x="104.58" y="101.58" width="5.83" height="5.83"/><rect class="cls-18" x="110.91" y="82.26" width="5.83" height="6.16"/><rect class="cls-18" x="86.32" y="107.91" width="5.1" height="5.83"/><rect class="cls-18" x="86.32" y="88.92" width="5.1" height="5.83"/><rect class="cls-18" x="86.32" y="101.58" width="5.1" height="5.83"/><rect class="cls-18" x="86.32" y="95.25" width="5.1" height="5.83"/><rect class="cls-18" x="110.91" y="107.91" width="5.83" height="5.83"/><path class="cls-18" d="M123.57,88.42h5.1v-4a2.19,2.19,0,0,0-2.19-2.19h-2.91Z"/><rect class="cls-18" x="117.24" y="88.92" width="5.83" height="5.83"/><rect class="cls-18" x="86.32" y="114.24" width="5.1" height="5.83"/><rect class="cls-18" x="117.24" y="95.25" width="5.83" height="5.83"/><rect class="cls-18" x="117.24" y="101.58" width="5.83" height="5.83"/><rect class="cls-18" x="117.24" y="107.91" width="5.83" height="5.83"/><rect class="cls-18" x="117.24" y="114.24" width="5.83" height="5.83"/><rect class="cls-18" x="123.57" y="114.24" width="5.1" height="5.83"/><rect class="cls-18" x="117.24" y="82.26" width="5.83" height="6.16"/><rect class="cls-18" x="104.58" y="120.57" width="5.83" height="6.16"/><rect class="cls-18" x="110.91" y="120.57" width="5.83" height="6.16"/><rect class="cls-18" x="123.57" y="101.58" width="5.1" height="5.83"/><rect class="cls-18" x="117.24" y="120.57" width="5.83" height="6.16"/><rect class="cls-18" x="123.57" y="107.91" width="5.1" height="5.83"/><path class="cls-18" d="M91.41,120.57H86.32v4a2.19,2.19,0,0,0,2.18,2.18h2.91Z"/><path class="cls-18" d="M123.57,120.57v6.16h2.91a2.19,2.19,0,0,0,2.19-2.18v-4Z"/><path class="cls-18" d="M91.41,88.42V82.26H88.5a2.19,2.19,0,0,0-2.18,2.19v4Z"/><rect class="cls-18" x="123.57" y="95.25" width="5.1" height="5.83"/><rect class="cls-18" x="123.57" y="88.92" width="5.1" height="5.83"/><rect class="cls-18" x="91.91" y="101.58" width="5.83" height="5.83"/><rect class="cls-18" x="91.91" y="114.24" width="5.83" height="5.83"/><rect class="cls-18" x="98.24" y="82.26" width="5.83" height="6.16"/><rect class="cls-18" x="91.91" y="107.91" width="5.83" height="5.83"/><rect class="cls-18" x="98.24" y="95.25" width="5.83" height="5.83"/><rect class="cls-18" x="98.24" y="88.92" width="5.83" height="5.83"/><rect class="cls-18" x="98.24" y="120.57" width="5.83" height="6.16"/><rect class="cls-18" x="91.91" y="120.57" width="5.83" height="6.16"/><rect class="cls-18" x="91.91" y="82.26" width="5.83" height="6.16"/><rect class="cls-18" x="98.24" y="101.58" width="5.83" height="5.83"/><rect class="cls-18" x="91.91" y="95.25" width="5.83" height="5.83"/><rect class="cls-18" x="91.91" y="88.92" width="5.83" height="5.83"/><path class="cls-7" d="M107.49,119.63A10.6,10.6,0,0,1,96.9,109V100a10.59,10.59,0,1,1,21.18,0V109A10.6,10.6,0,0,1,107.49,119.63Zm0-29.27A9.61,9.61,0,0,0,97.9,100V109a9.59,9.59,0,1,0,19.18,0V100A9.6,9.6,0,0,0,107.49,90.36Z"/><ellipse class="cls-7" cx="112.27" cy="101.73" rx="1.12" ry="1.52"/><path class="cls-7" d="M103.83,101.73c0,.84-.5,1.52-1.12,1.52s-1.12-.68-1.12-1.52.5-1.51,1.12-1.51S103.83,100.9,103.83,101.73Z"/><polygon class="cls-7" points="107.55 103.25 105.44 108.66 107.55 108.66 107.55 103.25"/><path class="cls-7" d="M107.11,112.41a6.85,6.85,0,0,1-2.8-.44l.43-.9-.22.45.22-.45s1.79.79,5.61,0l.21,1A16.41,16.41,0,0,1,107.11,112.41Z"/></g><g id="Interface"><rect class="cls-10" x="283.9" y="15.34" width="119.21" height="119.21" rx="5.13"/><rect class="cls-21" x="296.73" y="88.82" width="93.55" height="24.68" rx="4.63"/><path class="cls-7" d="M313.45,101.17l2.73,1.48-1.23,2-2.76-1.63.05,3h-2.35l0-3-2.76,1.65-1.2-2,2.73-1.48L306,99.67l1.2-2.06,2.76,1.66,0-3.06h2.35l-.05,3.06L315,97.61l1.23,2.06Z"/><path class="cls-7" d="M329.66,101.17l2.73,1.48-1.22,2-2.76-1.63,0,3h-2.35l0-3-2.75,1.65-1.21-2,2.73-1.48-2.73-1.5,1.21-2.06,2.75,1.66,0-3.06h2.35l0,3.06,2.76-1.66,1.22,2.06Z"/><path class="cls-7" d="M345.88,101.17l2.73,1.48-1.23,2-2.75-1.63.05,3h-2.36l0-3-2.76,1.65-1.2-2,2.73-1.48-2.73-1.5,1.2-2.06,2.76,1.66,0-3.06h2.36l-.05,3.06,2.75-1.66,1.23,2.06Z"/><path class="cls-7" d="M362.1,101.17l2.73,1.48-1.23,2-2.76-1.63.05,3h-2.35l0-3-2.75,1.65-1.2-2,2.73-1.48-2.73-1.5,1.2-2.06,2.75,1.66,0-3.06h2.35l-.05,3.06,2.76-1.66,1.23,2.06Z"/><path class="cls-7" d="M378.31,101.17l2.73,1.48-1.22,2-2.76-1.63.05,3h-2.35l0-3L372,104.7l-1.21-2,2.73-1.48-2.73-1.5L372,97.61l2.75,1.66,0-3.06h2.35l-.05,3.06,2.76-1.66L381,99.67Z"/><circle class="cls-21" cx="343.5" cy="52.23" r="26.73" transform="translate(63.68 258.19) rotate(-45)"/><path class="cls-10" d="M354,50.73h-20.9a2.86,2.86,0,0,0-2.87,2.86V66.33a2.86,2.86,0,0,0,2.87,2.86H354a2.86,2.86,0,0,0,2.87-2.86V53.59A2.86,2.86,0,0,0,354,50.73ZM345.42,64.9h-3.84l.8-5.21a2.54,2.54,0,1,1,2.24,0Z"/><path class="cls-10" d="M337.48,48.69l-.39-2a6.44,6.44,0,0,1,12.63-2.54l.39,2,3.69-.74-.4-2a10.2,10.2,0,1,0-20,4l.39,2Z"/><path class="cls-22" d="M358.4,122.39H328.6a1.32,1.32,0,0,1-1.32-1.32h0a1.32,1.32,0,0,1,1.32-1.32h29.8a1.32,1.32,0,0,1,1.32,1.32h0A1.32,1.32,0,0,1,358.4,122.39Z"/></g><g id="Character"><g id="_Group_" data-name="&lt;Group&gt;"><path class="cls-23" d="M259.69,121.84l10.24-8.7s8.72-9.24,10.56-9.44,5.81.59,6.86,1.91-6.82,9.9-8.67,11.48-5.54,1.32-5.54,1.32l-9.76,9.43Z"/><path class="cls-12" d="M180.69,354.16h-9.9a.72.72,0,0,0-.69.56L168.49,362a1.19,1.19,0,0,0,.93,1.42,1.09,1.09,0,0,0,.26,0c3.2-.05,5.54-.25,9.56-.25,2.48,0,9.95.26,13.37.26s3.87-3.38,2.47-3.69c-6.28-1.37-11-3.27-13-5.07A2,2,0,0,0,180.69,354.16Z"/><path class="cls-12" d="M222.67,353.9h-9.9a.72.72,0,0,0-.69.56l-1.61,7.26a1.19,1.19,0,0,0,.93,1.42,1.09,1.09,0,0,0,.26,0c3.21-.05,5.54-.25,9.56-.25,2.48,0,9.95.26,13.37.26s3.87-3.38,2.47-3.69c-6.28-1.37-11-3.27-13-5.07A2,2,0,0,0,222.67,353.9Z"/><path class="cls-12" d="M175.44,170.66h43.25c4.11,22.46,15.87,113.33,6.64,184.14l-14.44,1.58s2.26-108.81-10.66-143.55c-1.49,18.59-3.26,38.38-4.79,48.91-3.76,25.91-12.24,93.45-12.24,93.45l-14.64.4s3.21-65.51,4.61-91C174.72,237,175.38,176.34,175.44,170.66Z"/><path class="cls-13" d="M175.44,170.66h43.25c4.11,22.46,15.87,113.33,6.64,184.14l-14.44,1.58s2.26-108.81-10.66-143.55c-1.49,18.59-3.26,38.38-4.79,48.91-3.76,25.91-12.24,93.45-12.24,93.45l-14.64.4s3.21-65.51,4.61-91C174.72,237,175.38,176.34,175.44,170.66Z"/><path class="cls-22" d="M200.23,212.83a116,116,0,0,1,4.83,18.71c1.21-16.55-3.63-34.1-3.63-34.1Z"/><path class="cls-10" d="M214.74,95.83c6.83.83,20.28,31.89,25.42,34.66s25.52-14.64,25.52-14.64l5.14,6.33s-23.14,24.72-32.24,22-22-26.11-25.91-33.43S214.74,95.83,214.74,95.83Z"/><path class="cls-14" d="M270.82,122.18s-23.14,24.72-32.24,21.95c-4-1.21-8.66-6.34-13-12.34a200,200,0,0,1-12.9-21.08,12.48,12.48,0,0,1-.22-10.8,18.15,18.15,0,0,1,2.29-4.08c6.83.83,20.28,31.89,25.42,34.66s25.52-14.64,25.52-14.64Z"/><path class="cls-22" d="M225.57,131.79a200,200,0,0,1-12.9-21.08,12.48,12.48,0,0,1-.22-10.8C216.34,104.7,224.25,116.2,225.57,131.79Z"/><path class="cls-10" d="M214.74,95.83s-27.51-1.29-48,3.88c0,0,7.68,59.51,7.34,85.43l49-2.64S221.89,122.58,214.74,95.83Z"/><path class="cls-24" d="M174.08,185.14c.16-12-1.42-31.36-3.15-48.58h0c-.66-6.57-1.34-12.84-2-18.28-1.25-11-2.23-18.56-2.23-18.56,20.49-5.17,48-3.87,48-3.87,7.15,26.74,8.39,86.66,8.39,86.66Z"/><path class="cls-22" d="M170.93,136.55c-.66-6.57-1.34-12.84-2-18.28l3.15-2.42S174.86,126.69,170.93,136.55Z"/><path class="cls-22" d="M214.38,160.07l-2.69.13-7.3.34-4.48.21-9.33.44s0-.46-.05-1.3h0c-.08-1.81-.24-5.39-.51-9.9h0c-.19-3.36-.45-7.24-.77-11.3-.23-2.8-.48-5.68-.77-8.53-.43-4.23-.93-8.41-1.52-12.17-.31-2-.65-3.91-1-5.63l23.21-1.51s.3,1.47.75,4c.3,1.66.66,3.78,1.05,6.26A265.68,265.68,0,0,1,214.38,160.07Z"/><path class="cls-22" d="M204.39,160.54l-4.48.21c3.19-8.11,4.44-19.54,2.3-23.1-2.9-4.82-6.46,4.42-9,15.5a19.73,19.73,0,0,1-2.7,6.73c-.08-1.81-.24-5.39-.51-9.9h0a28.84,28.84,0,0,0,3.21-7.63c3.57-12.53,6.74-14.77,10.82-11.48C207.79,133.88,208.89,148.48,204.39,160.54Z"/><path class="cls-22" d="M211.69,160.2c.91-10.63-.49-28.54-3.61-34-3.57-6.32-11.45-6.46-15.24,5a29.48,29.48,0,0,1-3.59,7.55c-.23-2.8-.48-5.68-.77-8.53a30.73,30.73,0,0,0,2.85-4.25c4.32-7.65,11-11.21,17.6-6.76a8.71,8.71,0,0,1,2,2,265.68,265.68,0,0,1,3.42,38.94Z"/><path class="cls-22" d="M209.91,114.87c-5.19-3.92-12.2-2.86-16.68.85A8.74,8.74,0,0,1,187,118c-.31-2-.65-3.91-1-5.63l23.21-1.51S209.46,112.3,209.91,114.87Z"/><path class="cls-23" d="M182.8,97.65c3.95,3.58,13.63,2.26,13.63,2.26s6-1.66,4.77-3.54c-3.56-.59-5.28-2.25-6-4.38a10.06,10.06,0,0,1-.36-4.06,19.6,19.6,0,0,1,.3-2.27l-12-8.86C184.75,82.65,186.67,93.41,182.8,97.65Z"/><path class="cls-22" d="M185.94,82.43c.48,7.18,6.38,9.16,9.27,9.56a10.06,10.06,0,0,1-.36-4.06Z"/><path class="cls-12" d="M203.43,58.2s3.34,10.79-1.89,15.92-8.31-15.44-8.31-15.44Z"/><path class="cls-23" d="M185.83,85.46a10.15,10.15,0,0,0,12.1,2.16,11.27,11.27,0,0,0,5.6-6.15c.14-.36.26-.75.37-1.14,1.87-7.18,1-19.13-6.79-22.49a11,11,0,0,0-15.37,10.68C182.05,76.55,181.85,81.28,185.83,85.46Z"/><path class="cls-12" d="M193.88,71c-.06.65.32,1.19.75,1.2s.78-.52.8-1.17-.33-1.19-.75-1.2S193.9,70.35,193.88,71Z"/><path class="cls-12" d="M201.27,71.16c-.06.65.33,1.19.75,1.2s.78-.52.8-1.17-.33-1.19-.75-1.2S201.29,70.54,201.27,71.16Z"/><path class="cls-25" d="M198.92,71.44a22.9,22.9,0,0,0,3,5.65,3.77,3.77,0,0,1-3.16.53Z"/><path class="cls-12" d="M191.63,68.57a.39.39,0,0,0,.38-.14,3.08,3.08,0,0,1,2.48-1.23.39.39,0,0,0,.42-.35.38.38,0,0,0-.35-.41h0A3.81,3.81,0,0,0,191.41,68a.39.39,0,0,0,.05.54h0A.46.46,0,0,0,191.63,68.57Z"/><path class="cls-12" d="M204.5,68.68a.34.34,0,0,0,.22,0,.38.38,0,0,0,.2-.5h0A3.81,3.81,0,0,0,202.19,66a.37.37,0,0,0-.43.32h0a.39.39,0,0,0,.32.43h0a3.08,3.08,0,0,1,2.13,1.79A.41.41,0,0,0,204.5,68.68Z"/><path class="cls-12" d="M187.83,58.63l.53,3.52a2.64,2.64,0,0,0-1.23,3.36c1.22,2.95-.34,7.61-2.57,9.51,0,0-.11-1.29-1.19-1s-.6,7,1.62,10.19a23.43,23.43,0,0,1-5.85-10.44c-1.85-6.48-1.66-11.27-.39-13.83Z"/><path class="cls-12" d="M199.37,79.58a19.64,19.64,0,0,0-.79,2.85l-.52,0c-2.36-.11-3.42-.94-3.88-1.82a3.09,3.09,0,0,1-.31-1.41,2.93,2.93,0,0,1,.11-.82,11,11,0,0,0,4.58,1.17C199.06,79.58,199.37,79.58,199.37,79.58Z"/><path class="cls-7" d="M198.56,79.53l-.25.84c-2.22-.11-3.77-.49-4.44-1.19a2.93,2.93,0,0,1,.11-.82A11,11,0,0,0,198.56,79.53Z"/><path class="cls-26" d="M198.06,82.41c-2.36-.11-3.42-.94-3.88-1.82a7.4,7.4,0,0,1,2.6.64A2.8,2.8,0,0,1,198.06,82.41Z"/><path class="cls-12" d="M193.12,60.82a1.89,1.89,0,0,1,2.31-.6c1.69.5,3.18,2.2,4.92,4.35s5.18,2.18,6,.9-.79-3.07-.79-3.07,1.48-8.21-7.47-10.09-13.66,2.08-13.66,2.08-7.43.24-8,7.12a32.35,32.35,0,0,0,.5,8.33s-2,2.52,1.76,2.37c4.27-.17,9.4-2.49,9.65-6.65S193.12,60.82,193.12,60.82Z"/><path class="cls-23" d="M178.1,75A7.66,7.66,0,0,0,182.4,79c2.52.9,4-1.31,3.44-3.8-.5-2.2-2.39-5.4-5-5.2S177.08,72.77,178.1,75Z"/><path class="cls-10" d="M166.74,99.71c-7.17,2.08-17.19,50.88-15.87,57.21s26.5,33,26.5,33l7-5.3S163,154.28,162.74,148s9.49-29.8,9.49-29.8-.26-7.92-1.32-11.87A14.33,14.33,0,0,0,166.74,99.71Z"/><path class="cls-14" d="M166.74,99.71c-7.17,2.08-17.19,50.88-15.87,57.21s26.5,33,26.5,33l7-5.3S163,154.28,162.74,148s9.49-29.8,9.49-29.8-.26-7.92-1.32-11.87A14.33,14.33,0,0,0,166.74,99.71Z"/></g></g></g></svg>